<svg viewBox="0 0 39.54 41.3" xmlns="http://www.w3.org/2000/svg"><path d="m39.03 25.61-3.55-2.05c.36-1.93.36-3.91 0-5.85l3.55-2.05c.41-.23.59-.72.46-1.17-.92-2.96-2.5-5.65-4.55-7.88-.32-.34-.83-.42-1.23-.19l-3.55 2.05c-1.49-1.28-3.21-2.27-5.06-2.92v-4.08c0-.47-.32-.87-.78-.97-3.06-.68-6.19-.65-9.09 0-.46.1-.78.51-.78.97v4.1c-1.85.66-3.56 1.65-5.06 2.92l-3.54-2.05c-.41-.23-.92-.16-1.23.19-2.08 2.23-3.65 4.91-4.57 7.88-.14.45.05.93.46 1.17l3.55 2.05c-.36 1.93-.36 3.91 0 5.85l-3.55 2.05c-.41.23-.59.72-.46 1.17.92 2.96 2.5 5.65 4.55 7.88.32.34.83.42 1.23.19l3.55-2.05c1.49 1.28 3.21 2.27 5.06 2.92v4.1c0 .47.32.87.78.97 3.06.68 6.19.65 9.09 0 .46-.1.78-.51.78-.97v-4.1c1.85-.66 3.56-1.65 5.06-2.92l3.55 2.05c.41.23.92.16 1.23-.19 2.06-2.22 3.63-4.9 4.55-7.88.12-.46-.06-.94-.47-1.17zm-19.27 1.69c-3.67 0-6.66-2.99-6.66-6.66s2.99-6.66 6.66-6.66 6.66 2.99 6.66 6.66-2.99 6.66-6.66 6.66z" fill="#efefef"/></svg>