<svg viewBox="0 0 42.63 42.63" xmlns="http://www.w3.org/2000/svg"><path d="m15.99 17.32c0-1.47-1.19-2.66-2.66-2.66h-1.33c-2.95 0-5.33 2.39-5.33 5.33v4c0 2.95 2.39 5.33 5.33 5.33h1.33c1.47 0 2.66-1.19 2.66-2.66v-9.33zm14.65 11.99c2.95 0 5.33-2.39 5.33-5.33v-4c0-2.95-2.39-5.33-5.33-5.33h-1.33c-1.47 0-2.66 1.19-2.66 2.66v9.33c0 1.47 1.19 2.66 2.66 2.66h1.33zm-9.32-29.31c-11.89 0-20.94 9.89-21.32 21.32v1.33c0 .73.6 1.33 1.33 1.33h1.33c.73 0 1.33-.6 1.33-1.33v-1.33c.01-9.55 7.78-17.32 17.33-17.32s17.32 7.77 17.32 17.32v13.8c0 1.95-1.57 3.52-3.52 3.52h-8.47c0-2.21-1.79-4-4-4h-2.66c-2.21 0-4 1.79-4 4s1.79 4 4 4h15.13c4.15 0 7.52-3.36 7.52-7.52v-13.8c-.39-11.43-9.43-21.32-21.32-21.32z" fill="#efefef"/></svg>