<svg viewBox="0 0 41.3 41.3" xmlns="http://www.w3.org/2000/svg"><path d="m20.65 0c-11.41 0-20.65 9.24-20.65 20.65s9.24 20.65 20.65 20.65 20.65-9.24 20.65-20.65-9.24-20.65-20.65-20.65zm0 4c9.2 0 16.65 7.45 16.65 16.65s-7.45 16.65-16.65 16.65-16.65-7.45-16.65-16.65 7.45-16.65 16.65-16.65m11.67 10.85-1.87-1.89c-.39-.39-1.02-.39-1.42 0l-11.77 11.67-4.98-5.02c-.39-.39-1.02-.39-1.42 0l-1.89 1.87c-.39.39-.39 1.02 0 1.42l7.56 7.62c.39.39 1.02.39 1.42 0l14.37-14.25c.39-.39.39-1.02 0-1.42z" fill="#efefef"/></svg>