<svg viewBox="0 0 31.97 42.64" xmlns="http://www.w3.org/2000/svg"><path d="m8.09 30.2c-.72-.72-.35-.52-2.09-.99-.79-.22-1.49-.62-2.11-1.11l-3.79 9.27c-.37.9.32 1.87 1.28 1.83l4.39-.17 3.02 3.19c.67.7 1.83.48 2.2-.42l4.34-10.62c-.9.5-1.91.8-2.94.8-1.62 0-3.15-.63-4.3-1.78zm23.78 7.17-3.78-9.26c-.63.49-1.32.9-2.11 1.11-1.76.47-1.37.27-2.09.99-1.15 1.15-2.67 1.78-4.3 1.78-1.03 0-2.04-.3-2.94-.8l4.33 10.62c.37.9 1.53 1.12 2.2.42l3.02-3.19 4.39.17c.97.03 1.65-.94 1.28-1.83zm-9.97-9.05c1.27-1.3 1.42-1.18 3.23-1.67 1.16-.32 2.06-1.23 2.37-2.41.62-2.36.46-2.08 2.16-3.81.85-.87 1.17-2.11.87-3.3-.62-2.36-.62-2.03 0-4.4.31-1.17-.02-2.43-.87-3.3-1.7-1.73-1.54-1.45-2.16-3.81-.31-1.17-1.22-2.1-2.37-2.41-2.32-.63-2.04-.47-3.75-2.2-.85-.87-2.08-1.2-3.24-.88-2.32.63-2 .63-4.32 0-1.16-.32-2.39.02-3.24.88-1.7 1.73-1.42 1.57-3.74 2.2-1.16.32-2.06 1.23-2.37 2.41-.62 2.36-.46 2.08-2.16 3.81-.85.87-1.18 2.11-.87 3.3.62 2.36.62 2.03 0 4.4-.31 1.17.02 2.43.87 3.3 1.7 1.73 1.54 1.45 2.16 3.81.31 1.17 1.22 2.1 2.37 2.41 1.87.51 2.01.42 3.23 1.67 1.1 1.12 2.81 1.32 4.14.48 1.08-.68 2.46-.68 3.54 0 1.32.84 3.04.64 4.14-.48zm-13.76-13.66c0-4.41 3.51-7.99 7.85-7.99s7.85 3.58 7.85 7.99-3.51 7.99-7.85 7.99-7.85-3.58-7.85-7.99z" fill="#efefef"/></svg>