<svg viewBox="0 0 47.94 38.35" xmlns="http://www.w3.org/2000/svg"><path d="m46.74 26.36h-1.2v-8.1c0-.95-.38-1.87-1.06-2.54l-7.48-7.48c-.67-.67-1.59-1.06-2.54-1.06h-3.3v-3.6c0-1.98-1.61-3.6-3.6-3.6h-23.96c-1.99.02-3.6 1.63-3.6 3.62v23.97c0 1.98 1.61 3.6 3.6 3.6h1.2c0 3.97 3.22 7.19 7.19 7.19s7.19-3.22 7.19-7.19h9.59c0 3.97 3.22 7.19 7.19 7.19s7.19-3.22 7.19-7.19h3.6c.66 0 1.2-.54 1.2-1.2v-2.4c0-.66-.54-1.2-1.2-1.2zm-34.76 8.39c-1.98 0-3.6-1.61-3.6-3.6s1.61-3.6 3.6-3.6 3.6 1.61 3.6 3.6-1.61 3.6-3.6 3.6zm23.97 0c-1.98 0-3.6-1.61-3.6-3.6s1.61-3.6 3.6-3.6 3.6 1.61 3.6 3.6-1.61 3.6-3.6 3.6zm5.99-15.58h-10.79v-8.39h3.3l7.48 7.48v.91z" fill="#efefef"/></svg>