<svg viewBox="0 0 107.45 48.77" xmlns="http://www.w3.org/2000/svg"><path d="m107.41 6.06c0 13.83-.02 27.66.04 41.49 0 1.12-.33 1.22-1.29 1.22-33.32-.03-66.65-.02-99.97-.02-1.53-.51-3.06-.82-4.27-2.16-1.26-1.39-1.88-2.94-1.88-4.67-.06-13.75-.04-27.49-.04-41.23 0-.24-.02-.48.14-.69h101.22c1.58.47 3.09.89 4.35 2.21 1.1 1.16 1.11 2.58 1.69 3.85z" fill="#545454"/><path d="m68.28 19.02c2.39-4.81 11.53-5.47 14.63.03.1.1.2.21.25.35 1.38 3.68 1.09 4.11-2.73 4.11-2.87 0-5.74.04-8.61-.02-1.06-.02-1.24.35-.95 1.27.94 2.97 3.92 3.92 6.69 3.14.38-.11.8-.24 1.16-.47 1.04-.64 1.86-1.7 3.23-1.72.42 0 .9-.18 1.18.27.26.41-.14.71-.31 1.03-.44.82-1.1 1.44-1.87 1.95-3.49 2.32-9.29 1.59-12.11-1.51-1.77-2.7-1.65-5.53-.56-8.42z" fill="#fdfdfd"/><g fill="#fcfcfc"><path d="m58 16v4.04c0 .28-.04.61.25.78.39.23.62-.11.86-.32 1.43-1.2 2.86-2.39 4.27-3.61 1.06-.92 2.26-1.42 3.67-1.36.32.01.72-.12.88.28.17.42-.22.58-.47.78-.93.75-1.89 1.48-2.79 2.27-1.6 1.38-1.75 2.87-.44 4.54 1.39 1.78 2.83 3.51 4.23 5.28.25.31.78.6.48 1.08-.26.41-.79.24-1.21.21-1.37-.11-2.43-.77-3.27-1.86-1.17-1.52-2.4-3-3.53-4.54-.68-.93-1.24-.82-1.96-.08-.64.66-.97 1.42-.98 2.32-.01.91-.05 1.83 0 2.74.06 1.05-.37 1.45-1.42 1.47-1.14.03-1.5-.43-1.49-1.54.04-4.04.01-8.07.01-12.11 0-1.59-.03-3.17.01-4.76.02-.65-.29-1.58.86-1.62.97-.03 1.65.46 1.93 1.4.1.36.08.76.09 1.14.01 1.15 0 2.31 0 3.46z"/><path d="m53.47 21.16c0 1.54.06 3.08-.02 4.61-.1 1.96-1.07 3.39-2.97 4-2.29.74-4.62.76-6.91-.03-1.83-.63-2.83-2-2.88-3.91-.08-3.02 0-6.05-.04-9.08-.01-1.19.71-1.26 1.6-1.28 1.01-.02 1.33.47 1.32 1.42-.03 2.59-.02 5.19.02 7.78.04 2.34 1.18 3.5 3.41 3.54 2.27.04 3.48-1.13 3.53-3.55.05-2.54.06-5.09.01-7.64-.02-1.09.32-1.57 1.47-1.56 1.1 0 1.57.38 1.51 1.52-.07 1.39-.02 2.79-.02 4.18-.01 0-.03 0-.04 0z"/><path d="m97.62 18.48c.6 3.53.19 7.1.3 10.65.03 1.11-.72 1.17-1.55 1.19-.86.02-1.36-.27-1.36-1.23.01-2.6.02-5.19-.01-7.79-.03-2.69-1.51-3.98-4.12-3.68-1.71.2-2.74 1.17-2.8 2.9-.09 2.74-.1 5.48-.06 8.22.01 1.08-.28 1.59-1.45 1.59-1.12 0-1.54-.4-1.52-1.52.05-2.74.03-5.48.02-8.22 0-.93.21-1.81.52-2.67 1.7-2.62 4.35-2.73 7.03-2.54 1.46.1 2.92.5 4.06 1.54.45.41.77.95.94 1.56z"/><path d="m34.43 16.18c1.38-1 2.87-1.26 4.49-.7.39.13.92.18.98.71.06.54-.38.86-.75 1.15-.57.46-1.27.37-1.93.35-1.19-.04-2.16.34-2.84 1.35-.91 2.66-.47 5.41-.58 8.13-.03.88.25 1.82-.29 2.65-2.68.58-2.87.42-2.87-2.24 0-3.55-.02-7.1-.02-10.65-.02-.15-.04-.3-.09-.45-.02-.56.11-1.02.79-1.06.95-.05 1.93-.17 2.42.95.26.02.46-.13.68-.22z"/></g><path d="m26.83 11.57c.96.54 1.22 1.45 1.19 2.45-.08 2.8.27 5.5.99 8.23 1.1 4.15-1.82 7.81-6.18 7.99-3.2.13-6.41.05-9.62.02-1.96-.02-3.18-1.13-3.9-2.88-.47-.85-.21-1.76-.22-2.65-.06-4.06-.09-8.12 0-12.19.01-.46-.02-.88.23-1.28 1.08-1.9 2.71-2.69 4.87-2.63 2.48.07 4.97-.09 7.44.06 2.12.13 4.19.62 5.19 2.88-.48.42-.87.12-1.27-.16-1.62-1.15-3.46-1.62-5.4-1.71-1.96-.09-3.93-.12-5.88.01-2.63.18-3.83 1.39-3.9 4.02-.09 3.84-.1 7.68 0 11.52.06 2.37 1.18 3.74 3.4 3.89 3.38.23 6.78.44 10.13-.49 3.39-.94 4.81-3.47 3.7-6.82-.69-2.08-1.01-4.19-.84-6.37.07-.92.03-1.82-.27-2.7-.17-.48-.3-.93.33-1.18z" fill="#545454"/><path d="m52.18 39.6c-.46-.06-.83.09-1.19.39-.21.18-.64.46-.72.39-1.68-1.4-3.8.49-5.5-.74-.29-.21-.65-.33-.49-.72.25-.6.23-1.41.94-1.69.54-.21.71.33.88.72.17.38.34.75.63 1.41.36-1.29.28-2.67 2-2.43 1.6.21 1.08 1.45 1.17 2.49.98-.41.6-2 1.79-1.87.66.08.9.79 1.12 1.39-.19.25-.11.75-.64.67z" fill="#9c9c9c"/><path d="m78.72 27.43c-2.7 1.92-6.61.85-7.85-2.14-.63-1.53-.4-1.92 1.21-1.93 3.16-.02 6.32 0 9.47-.01 1.92 0 2.15-.27 1.87-2.2-.1-.71-.33-1.39-.51-2.09.21.32.5.61.62.95 1.09 3.19.53 3.77-2.39 3.68-2.78-.08-5.56-.02-8.33 0-.56 0-1.24-.14-1.55.48-.32.63.09 1.21.43 1.73 1.02 1.56 3.25 2.37 5.22 1.93.61-.14 1.21-.26 1.82-.39z" fill="#5d5d5d"/><path d="m98.19 13.26c.91-1.1 2.1-1.03 3.26-.64 1.13.38 1.63 1.81 1.18 3-.46 1.23-1.88 1.86-3.18 1.43-.52-.17-.92-.49-1.26-.89-.38-.97-.38-1.93 0-2.9z" fill="#7e7e7e"/><path d="m9.34 11.27c0 5.37 0 10.74-.01 16.12-.7-.31-.54-.95-.54-1.5-.02-4.2 0-8.4 0-12.6 0-.72.04-1.44.56-2.02z" fill="#4d4d4d"/><path d="m28.05 37.98c.76-1.4 1.89-1.21 3.08-.72.99.81.26 1.9.43 2.84.04.2-.28.34-.52.39-.57.12-.49-.43-.7-.68-.37-.34-.76-.42-1.1 0-.42.5-.8.38-1.2 0-.46-.18-1.03-.05-1.39-.52-.17-.26-.06-.5.04-.74.32-.49.9-.37 1.35-.56z" fill="#989898"/><path d="m52.1 9.95c1.05-.16 1.43.31 1.46 1.37.03 1.22-.58 1.43-1.6 1.44-1.11.02-1.53-.4-1.54-1.52-.02-1.3.72-1.39 1.68-1.3z" fill="#f0f0f0"/><path d="m36.07 39.79c-1.04 1.05-2.09 1.02-3.14.02-.28-.22-.78.24-.95-.3-.08-.44-.05-.89-.03-1.33.3-.71 1.37-.42 1.59-1.24h-.03c1.11-.47 2.02-.08 2.69.8.51.66.74 1.43-.13 2.06z" fill="#9b9b9b"/><path d="m68.27 37.84c.69-.63 1.41-1.16 2.02.06.39.8.91-.96 1.23.1.61.74.61 1.37-.34 1.82-.57-.09-1.1-.46-1.68.15-.48.5-.81-.11-1.14-.4-.4-.05-.84.22-1.22-.1-.29-.27-.32-.55-.05-.85.38-.28.74-.58 1.18-.77z" fill="#8d8d8d"/><path d="m55.92 39.84c1.25.19 1.62-.71 2.03-1.6.19-.4.21-1.02.86-.99.56.03.56.58.75.94.18.33.34.68.48 1.04.1.26.3.56.07.8-.26.28-.53.04-.74-.13-.46-.37-.85-.24-1.28.08-.82.61-1.72.77-2.69.38-.16-.51.05-.66.53-.53z" fill="#adadad"/><path d="m42.26 12.74c-.92-.03-1.74-.02-1.6-1.1.14-1.11.91-1.63 1.98-1.69.99-.06.98.64 1.02 1.34.06 1.16-.52 1.55-1.4 1.44z" fill="#f3f3f3"/><path d="m95.33 39.76c-.72.47-1.39 1.26-2.32.36-.07-.1-.17-.18-.24-.27-.12-.07-.26-.14-.4-.21-1.08-.6-1.11-1.04-.11-1.67.2-.13.37-.27.49-.47 1.34-1.18 1.42-1.17 2.59.28.31.37 1.14.07 1.07.96-.05.76-.47.94-1.07 1.02z" fill="#9d9d9d"/><path d="m90.45 40.1c-.64.64-1.33.63-2.04.14-.36-.25-.69-.52-1.14-.21-.34-.03-.73.07-.94-.34-.43-.67.07-1.21.27-1.79.13-.31.38-.41.69-.41.41.26.7.03 1.02-.2.75-.54 1.49-.53 2.17.15.11.17.25.31.37.48.11.43-.67.74-.16 1.22.35.42.05.68-.22.95z" fill="#959595"/><path d="m42.29 36.95c.74.02 1.32.25 1.36 1.1.03.49-1.56 2-2.09 1.93-.76-.11-.51-.8-.53-1.26-.04-.88 0-1.79 1.26-1.77z" fill="#a6a6a6"/><path d="m98.64 19.2v10.34c-.08 0-.16 0-.24 0v-10.34z" fill="#4e4e4e"/><path d="m18.81 40.39c-.43-.29-.89-.44-1.41-.29-.35-.27-.75-.09-1.12-.14-.87-.05-1.04-.63-1.02-1.35.25-.94 1.02-1.09 1.8-1.2.37-.05.77.1 1.12-.16.32-.04.64-.08.95-.12-.1.74.25 1.44.16 2.18-.05.42.03.87-.48 1.08z" fill="#575757"/><path d="m28.05 37.98c-.27.22-.55.44-.82.67-.41.09-.5.26-.14.55.32.2.64.41.96.61-.77.61-1.57 1.09-2.58.54-.87-.8-1.27-1.69-.56-2.8 1.2-.94 2.24-.75 3.14.44z" fill="#9e9e9e"/><path d="m90.45 40.1c-.19-.19-.38-.39-.57-.58-.62-.42-.29-.7.17-.87.32-.12.33-.36.4-.59 0-.2.02-.41.03-.61.77-.46 1.52-.16 2.27.05-.21.72-.81 1.51.33 2h-.02c-.02.2-.03.41-.05.62-.85-.06-1.71.58-2.56-.02z" fill="#888"/><path d="m67.49 39.24c.29.11.58.21.87.32-.66 1.07-1.51 1.38-2.59.63-.4-.28-.79-.25-1.19-.06-.46.02-.64-.35-.88-.64-.32-.68-.31-1.35.05-2.03.28-.1.57-.11.86-.02.36 0 .72.02 1.07.03.2.02.4-.04.59.04.36.34.48.78.54 1.25.05.39.28.55.67.49z" fill="#9b9b9b"/><path d="m97.62 18.48c-2.64-3.72-8.49-3.99-12.03-.56.2-.93.87-1.48 1.66-1.85 2.84-1.36 5.71-1.36 8.54.05.96.48 1.76 1.16 1.84 2.37z" fill="#7e7e7e"/><path d="m87.28 37.51c-.12.19-.24.39-.35.58-.46.43-.97.85-.18 1.43l.51.51c-1.28.89-1.75.8-2.57-.5-.51-.59-1.34-1.14-.29-1.96.95-.49 1.89-1.15 2.88-.07z" fill="#959595"/><path d="m30.69 16.38c.39 3.2.08 6.4.18 9.6.01.43 0 .86 0 1.29 0 2.49.14 2.61 2.61 2.4.17.09.2.21.07.36-.93.51-1.91.24-2.87.21-.03-.04-.08-.07-.09-.11-.18-4.55-.18-9.09 0-13.64 0-.04.06-.07.09-.11z" fill="#aeaeae"/><path d="m84.4 37.58c.1.65.19 1.31.29 1.96-1.03.52-1.97 1.92-3.2.32-.12-.15-.19-.31-.21-.5.21-.5.51-.44.86-.15 1.11.91 1.04-.05 1.15-.73.1-.63-.12-1.68 1.12-.91z" fill="#9f9f9f"/><path d="m18.81 40.39c.04-1.09-.25-2.22.31-3.26.61.15 1.27-.35 1.88.07-.16.77-1.08.14-1.24.84.27.54 1.15.21 1.34.89-.39.54.99 1.32-.23 1.76-.7-.01-1.41.1-2.06-.29z" fill="#9e9e9e"/><path d="m95.33 39.76c.5-.66.45-1.33 0-1.99 1.42-1.48 1.84.17 2.57.84.66.55.5.93-.26 1.18-.24-.15-.52-.34-.75-.04-.53.71-1.04.4-1.56.01z" fill="#898989"/><path d="m21.98 39.22c.09-.28.18-.55.27-.83.45-1.48 1.21-.69 1.93-.29.94.82.35 1.54-.16 2.27-.67.43-1.35.37-2.03.03-.94-.39-.7-.78 0-1.18z" fill="#979797"/><path d="m77.23 37.73c-.34.56-.24 1.2-.37 1.8-.08.38-.42.72-.68.39-.57-.72-.61-1.71-.59-2.56.01-.64.83-.39 1.32-.44.19-.02.38.02.57.04.37.4.48.72-.25.78z" fill="#989898"/><path d="m11.98 39.27c-.08.56-.19 1.24-.91.55-.5-.48-1.93.07-1.55-1.36.12-.45.26-.99.83-1.05.5-.05.73.37.91.78.12.26.26.51.39.76.13.09.39.03.32.31z" fill="#a1a1a1"/><path d="m38.69 37.19c.29.7.06 1.48.41 2.21.22.47-.25.9-.73 1.08-.75.29-1.3-.02-1.69-.68.04-.54-.14-1.1.09-1.63.28-1.04 1.17-.87 1.92-.98z" fill="#9a9a9a"/><path d="m79.48 38.46c-1.01.24-.44 1.66-1.43 1.93-.69-1.63-.6-2.55.33-3.45.86 0 1.8-.21 2.3.83.08.24.05.45-.11.64-.35.27-.73.03-1.09.04z" fill="#a1a1a1"/><path d="m32.4 39.59c.23-.06.42-.01.53.22-1.18 1.1-1.66 1.1-2.58 0 .32.24.72.54.78-.15.07-.79.01-1.6 0-2.39.71-.75 1.65.12 2.41-.33-.27.47-.4 1.09-1.14 1.06-.42.53-.6 1.06 0 1.59z" fill="#595959"/><path d="m30.69 16.38c-.15 4.62-.13 9.24 0 13.86-.38-.66-.32-1.39-.32-2.11 0-4.18 0-8.35-.01-12.53.11-.16.24-.18.4-.08.17.24 0 .46-.06.68v.18z" fill="#838383"/><path d="m37.21 38.44c.12.45.89.57.7 1.07-.2.52-.81.19-1.23.29-.2 0-.41 0-.61-.01.08-2.36-.33-2.81-2.56-2.85 1.17-.62 2.12.05 3.1.54.57.08.27.72.6.96z" fill="#606060"/><path d="m54.15 16.22v10.84s-.09 0-.14 0v-10.84s.09 0 .14 0z" fill="#484848"/><path d="m64.62 37.44c-.2.11-.4.22-.6.34-.72.36-.34 1.24-.82 1.71-.25.31-.6.32-.95.35-.64-.88-.51-1.71.24-2.42.67-.63 1.43-.7 2.13.02z" fill="#a0a0a0"/><path d="m33.55 30.04c-.02-.12-.05-.24-.07-.36 0-2.52 0-5.04.04-7.55.01-1.1.09-2.19.86-3.08 0 .37-.01.73-.02 1.1-.76 2.26-.28 4.6-.42 6.91-.06.98.2 1.98-.16 2.95-.07 0-.15.02-.22.04z" fill="#838383"/><path d="m71.18 39.82c.11-.61.23-1.21.34-1.82.24-.18.48-.36.72-.54.95.35 1.31 1.27 1.91 1.96-.34 1.2-1.02.78-1.69.38-.43.22-.86.21-1.29.02z" fill="#757575"/><path d="m55.92 39.84c-.18.18-.35.35-.53.53-.71-.74-.57-1.64-.43-2.53.04-.23.16-.47.45-.45.27.02.41.23.43.48.04.66.06 1.31.09 1.97z" fill="#9f9f9f"/><path d="m79.48 38.46c.3-.13.6-.26.9-.39 1.51-.41 1.24.59 1.13 1.45 0 .11-.02.23-.03.34q-1.25.75-2-1.4z" fill="#7c7c7c"/><path d="m97.64 39.79c.09-.39.17-.79.26-1.18.14-.33-.03-.94.44-.94.62 0 .42.64.41 1.02 0 .54.29 1.21-.34 1.57-.36.21-.56-.22-.77-.47z" fill="#a5a5a5"/><path d="m11.98 39.27c-.11-.1-.21-.21-.32-.31.1-.1.19-.21.29-.31.23-.23.48-.43.83-.4.67.33 1.41.46 2.07.84.43.34.36.69.02 1.05-1.4.74-1.99.56-2.89-.86z" fill="#9a9a9a"/><path d="m73.5 39.18c-.82-.28-1.11-.94-1.26-1.72 1.76-.53 2.04-.34 1.81 1.19.05.42-.28.45-.55.53z" fill="#ababab"/><path d="m88.47 29.32v-8.44s.09 0 .14 0v8.49s-.09-.03-.14-.05z" fill="#4a4a4a"/><path d="m21.98 39.22c-.19.39-.18.79 0 1.18-.37.09-.74.19-1.11.28-.03-.14-.01-.31-.09-.4-.29-.36-1.25-.06-1.04-.87.17-.64.87-.4 1.36-.49.29.1.58.2.87.3z" fill="#585858"/><path d="m68.28 19.02c-.18.93-.4 1.85-.54 2.78-.31 2.01.32 3.84 1.1 5.64-1.83-2.07-2.08-5.87-.56-8.42z" fill="#b9b9b9"/><path d="m33.78 30c.02-2.4.05-4.8.06-7.2 0-.92.06-1.83.52-2.65-.39 2.47-.26 4.97-.28 7.45 0 .81.03 1.63-.31 2.4z" fill="#545454"/><path d="m58.79 11.92v7.86s-.09 0-.14 0v-7.83s.09-.02.14-.04z" fill="#494949"/><path d="m18.17 37.24c.06.35.29.96-.36.74-.86-.3-1.46.08-2.13.41-.24.1-.45.09-.53-.21-.13-.47.29-.5.54-.66.75-.76 1.59-.74 2.48-.28z" fill="#999"/><path d="m12.76 38.65c-.27 0-.54 0-.81 0 .59-1.69 1.18-1.98 2.8-1.39.5.42.38.86.02 1.29-.64.48-1.34 0-2 .1z" fill="#a0a0a0"/><path d="m49.96 24.45v-7.89s.07 0 .11 0v7.84s-.07.04-.11.06z" fill="#4b4b4b"/><path d="m14.26 38.04c.28-.18.45-.44.48-.78.31.09.63.18.95.26v.87c.02.61.35 1.03.81 1.38.25.08.26.19.03.32-.56.01-1.11.02-1.67.03-.21-.22-.43-.43-.64-.65-.69-.5-.85-.99.03-1.45z" fill="#777"/><path d="m24.01 38.36c-.59-.15-1.18-.19-1.76.02-.31-.56-.22-1.06.37-1.32.74-.32 1.28.09 1.71.67.23.38.28.67-.32.62z" fill="#9b9b9b"/><path d="m98.19 13.26c.61.97.6 1.93 0 2.9-.91-.96-.9-1.93 0-2.9z" fill="#6d6d6d"/><path d="m73.5 39.18c.18-.18.37-.36.55-.53.71.49.77 1.11.12 1.62-.67.53-1.32.36-1.71-.46.43-.06.95.03 1.03-.62z" fill="#acacac"/><path d="m81.51 39.52c-.25-.58-.55-1.13-1.13-1.45.1-.1.2-.2.3-.3 1.33-.54 1.44-.43 1.45 1.44-.21.1-.41.2-.62.3z" fill="#929292"/><path d="m62.25 39.84c.19-.2.38-.41.57-.61.47.25 1.06-1.16 1.45.11.1.26.21.53.31.79-.88.73-1.64.52-2.33-.29z" fill="#a4a4a4"/><path d="m66.11 37.85c-.14-.13-.28-.25-.42-.38 1-.86 1.86-.68 2.58.37-.16.26-.32.53-.49.79-.74.12-1.24-.26-1.68-.79z" fill="#a2a2a2"/><path d="m24.01 38.36c.11-.21.21-.41.32-.62.19-.07.38-.13.57-.2.14.94.15 1.91.56 2.8-.49-.33-.97-.3-1.45.02.18-.67.27-1.33 0-2z" fill="#898989"/><path d="m37.21 38.44c-.36-.22-.5-.58-.6-.96.62-.62 1.32-.7 2.08-.29-.39.54-1.18.61-1.48 1.25z" fill="#9f9f9f"/><path d="m30.62 15.57c-.09.01-.18.02-.28.04 1.49-.98 2.32-.87 4.08.57-.11.19-.22.38-.33.57-.24.18-.68.35-.7.02-.11-1.69-1.33-1.11-2.23-1.17-.18-.01-.36-.08-.55-.03z" fill="#545454"/><path d="m52.18 39.6c-.34-.75.05-.81.64-.67.11.42.57.9 0 1.22-.35.19-.52-.24-.63-.56z" fill="#a9a9a9"/><path d="m58.77 25.48v3.56s-.09 0-.13 0v-3.55s.09-.01.13-.02z" fill="#494949"/><path d="m78.39 36.94c-.52 1.11-.26 2.29-.33 3.45-.09-.1-.19-.21-.28-.31-.61-.63.09-1.59-.56-2.2 0-.05 0-.1.02-.15.08-.26.16-.52.25-.78h.91z" fill="#747474"/><path d="m77.21 37.87c.81.58.5 1.44.56 2.2-.65-.62-.52-1.43-.56-2.2z" fill="#4b4b4b"/><path d="m16.53 40.1c-.01-.11-.02-.22-.03-.32.3.11.6.21.9.32-.29 0-.58 0-.87 0z" fill="#969696"/><path d="m79.52 19.03c.6.49 1.02 1.17.75 1.86-.3.77-1.17.45-1.8.46-2.15.03-4.3.03-6.45 0-1.34-.02-1.53-.37-.97-1.58 1.22-2.67 5.29-3.56 7.42-1.63-.99.54-2.04.14-3.05.17-.61.02-1.17.04-1.48.67-.11.1-.23.19-.36.26-.33.46-1.03.05-1.6.86 1.58-.46 2.9-.32 4.22-.34.43 0 .91-.13 1.28.03 1 .45 1.58.03 2.06-.78z" fill="#555"/><path d="m73.19 18.46c1.7-1.06 3.49-.52 5.27-.31.59.01.7.59 1.06.88q.18 1.75-1.58 1.74c-1.48 0-2.97.03-4.45-.02-.66-.02-1.67.36-1.85-.56-.2-.99.62-1.51 1.55-1.73.53 1.25 1.61 1.34 2.67 1.29-.89-.31-2.14-.02-2.67-1.29z" fill="#515151"/><path d="m30.62 15.57c1.55-.77 2.59-.03 3.47 1.18-.24.53-.76.9-.97.2-.5-1.59-1.42-1.17-2.44-.75-.02-.21-.04-.42-.06-.64z" fill="#aeaeae"/><path d="m26.83 11.57c.72 1.36.92 2.77.75 4.31-.23 2.03.17 4.01.84 5.94 1.21 3.44-.5 6.64-4.03 7.56-3.72.97-7.52.7-11.28.48-2.2-.13-3.4-1.77-3.41-4.05-.02-4.23-.01-8.45 0-12.68 0-2.43 1.23-3.95 3.65-4.14 2.71-.21 5.45-.2 8.17.07 2.08.2 3.88.98 5.32 2.52z" fill="#fdfdfd"/><path d="m101.58 15.61c-.82.88-1.63.02-2.42-.09-.35-.05-.04-2.25.35-2.49.75-.46 1.71.03 2.19 1.1.28.52-.11.99-.12 1.48z" fill="#bfbfbf"/><path d="m101.58 15.61c-.53-.54-.09-1 .12-1.48.72.49.7.78-.12 1.48z" fill="#696969"/><path d="m27.09 39.19c-.38.49-.79.71-1.27.13-.37-.44-.35-.91.1-1.25.73-.56.97.15 1.3.57-.05.18-.09.37-.14.55z" fill="#555"/><path d="m30.07 38.03c-.06.03-.13.05-.19.08-.01-.04-.05-.1-.04-.11.06-.03.12-.06.19-.08.01.04.03.07.04.11z" fill="#5d5d5d"/><path d="m35.18 38.78c-.05.42-.17.81-.64.82-.53.01-.72-.39-.72-.87 0-.42.19-.78.64-.81.56-.03.67.41.72.85z" fill="#535353"/><path d="m32.4 39.59c-.07.12-.17.34-.2.33-.73-.22-.37-.84-.4-1.29-.03-.35-.23-.89.41-.98.05 0 .13.22.2.34v1.59z" fill="#a7a7a7"/><path d="m66.11 37.85c.85-.36 1.32.09 1.68.79-.1.2-.2.41-.3.61-.24.34-.53.58-.94.28-.6-.43-.53-1.05-.44-1.68z" fill="#5e5e5e"/><path d="m93.07 39.5c-.01-.19-.04-.38-.04-.57.02-.52.21-.99.78-1 .49-.01.8.39.78.85-.02.6-.37.97-1.02.91-.18-.02-.35-.13-.53-.2 0 0 .02.01.02.01z" fill="#4b4b4b"/><path d="m86.75 39.52c-.53.21-1.03.22-1.32-.37-.16-.31-.12-.65.1-.93.41-.53.91-.33 1.39-.13.72.57.37 1.01-.18 1.43z" fill="#535353"/><path d="m90.44 38.06c.75.85-.07 1.09-.56 1.46-.87.33-1.16-.18-1.07-.89.15-1.16 1.01-.6 1.64-.57z" fill="#525252"/><path d="m64.27 39.34c-.52.43-1.01.53-1.45-.11.07-.75.16-1.49 1.2-1.45 0 .54 1.61.81.25 1.57z" fill="#535353"/><path d="m14.26 38.04c.71.5.73.98-.03 1.45-.94.51-1.16-.24-1.47-.84.32-.65.73-1.08 1.5-.61z" fill="#525252"/><path d="m73.19 18.46c1.22.16 2.4.56 3.67.3.74-.15 1.41.28 1.43 1.04.01.81-.81.64-1.33.66-.9.05-1.81.04-2.71 0-1.69-.06-1.89-.47-1.05-2z" fill="#555"/><path d="m24.63 21.91c1.25 1.61.98 3.57-.63 4.73-1.74 1.24-7.62 1.33-9.39.12-.27-.18-.46-.47-.69-.7-1.11-2.61-.8-3.97 1.18-5.14.16-.1.31-.26.5-.27 3.09-.12 6.26-.87 9.03 1.26z" fill="#545454"/><path d="m17.13 17.8c-.43 0-.87.05-1.29 0-.9-.13-1.98.44-2.68-.48-.52-.7-.03-3.61.62-4.4.64-.77 1.46-1.26 2.43-1.42 2.05-.35 4.11-.27 6.11.3 1.3.37 2.09 1.63 2.03 2.98-.06 1.36-.97 2.41-2.51 2.75-1.55.35-3.14.28-4.72.28z" fill="#545454"/><path d="m24.63 21.91c-2.39-1.44-5.04-1.18-7.64-1.12-2.66.06-3.93 1.84-3.25 4.42.07.28.12.56.18.84-1.45-1.75-1.11-3.88.81-5.12 1.84-1.19 7.64-1 9.36.33.22.17.37.43.55.64z" fill="#5c5c5c"/></svg>