<svg viewBox="0 0 40.35 63.84" xmlns="http://www.w3.org/2000/svg" xmlns:xlink="http://www.w3.org/1999/xlink"><clipPath id="a"><path d="m0 0h40.35v63.84h-40.35z"/></clipPath><g clip-path="url(#a)"><path d="m40.54 20.55v1.13c-.19.14-.18.37-.25.56-.84 2.49-2.36 4.63-3.56 6.93-.47.9-.41 1.18.37 1.84 1.17.99 2.3 2.01 3.17 3.29.12.18.13.41.28.58v1.51c-.48.31-.76-.05-1.05-.32-1.15-1.11-2.27-2.25-3.41-3.37-.24-.24-.45-.53-.86-.67-.07.38.19.57.39.77 1.38 1.37 2.69 2.8 4.16 4.07.35.3.45.73.76 1.02v3.21c-.59.35-.87-.15-1.18-.46-1.89-1.84-3.75-3.72-5.63-5.57-.31-.3-.68-.97-1.12-.53-.48.47.23.8.53 1.09 2.08 2 4 4.18 6.23 6.03.51.42.81.99 1.17 1.52v3.77c-.68.41-1.46.39-2.21.51-.64-.03-.98-.52-1.38-.91-2.44-2.41-4.86-4.83-7.29-7.25-.24-.24-.47-.51-.79-.66-.21-.1-.43-.12-.61.06-.19.18-.15.4-.04.61.15.28.39.49.62.71 2.04 1.96 3.93 4.07 6.08 5.93.27.24.47.51.36.91-.12.4-.44.5-.8.54-1.35.13-2.54.04-3.57-1.14-1.45-1.65-3.08-3.14-4.69-4.65 1.1 1.23 2.14 2.52 3.35 3.66.27.26.53.53.79.81.24.26.46.54.27.92-.16.33-.48.36-.8.39-.57.05-1.03-.1-1.45-.52-1.23-1.22-2.44-2.45-3.68-3.66-1.02-1-1.31-1.02-2.55-.29-3.19 1.86-6.47 3.53-10.07 4.47-1.36.36-2.71.72-4.18.46-.85-.15-1.75-.04-2.63.08-1.32.17-2.43-.49-3.5-1.18-.64-.41-1.16-.96-1.75-1.43-.07-.14-.12-.29-.17-.44-.12-1.05-.08-2.09-.07-3.14 0-.33.08-.59.38-.75.6-.35.95.09 1.29.44.66.68 1.35 1.33 2.19 1.78.87.47 1.78.81 2.8.71.92.22 1.83.07 2.75 0 1.67.1 3.24-.37 4.81-.82 2.18-.64 4.21-1.67 6.23-2.67.83-.41.87-.74.22-1.43-.8-.84-1.64-1.65-2.46-2.47-.97-.96-1.26-1.01-2.46-.31-1.71 1.01-3.51 1.83-5.36 2.54-1.92.74-3.91.98-5.93.58-1.86-.37-3.17-1.43-3.75-3.28-1.22-1.51-.55-3.31-.73-4.97-.07-.64.02-1.31.03-1.96.95-1.73 1.62-3.58 2.46-5.35 1.34-2.86 3.32-5.25 5.42-7.55 3.25-3.56 7.14-6.32 11.3-8.73 2.8-1.63 5.8-1.95 8.94-1.71.46.04.89.2 1.21.48.93.8 1.87 1.58 2.67 2.51.08.61.25 1.18.58 1.72.45.74.37 1.58.29 2.39-.29 2.98-1.24 5.75-2.76 8.33-.76 1.28-.72 1.57.3 2.61 1.19 1.21 2.42 2.38 3.53 3.67.82.95 1.18.88 1.85-.19 1.28-2.05 2.56-4.1 3.86-6.14.22-.34.38-.75.88-.75.09.03.17.07.24.13z" fill="#ededed"/><path d="m.03 29.03v4.6c0 .68.02 1.31.63 1.77.3.22.33.52.1.82-.04.06-.08.1-.13.15-.08.06-.18.09-.26.15-.02.03-.05.05-.07.08-.3 1.23-.25 2.44.04 3.66.06.13.12.25.17.37.03.14.01.28-.07.4-.72 1.05-.36 2.21-.32 3.33 0 .18.04.36.07.54-.06.16-.12.33-.09.51.07 5.37.01 10.73.03 16.1 0 .85 0 1.69.09 2.54.02.12.02.23 0 .35-.04.11-.1.21-.18.29-.47.09-.58-.09-.58-.56.02-3.61.01-7.22.01-10.83v-53.68c.29-.17.62-.09.93-.09h39.23c.31 0 .63-.08.93.09v.38c-.09.09-.19.16-.29.23-.65.32-1.36.23-2.05.23-11.67 0-23.35 0-35.02 0-2.54 0-2.69.14-2.69 2.66v23.29c0 .9 0 1.8-.47 2.62z" fill="#ededed"/><path d="m40.54 43.18c-.43.07-.6-.28-.84-.51-2.52-2.41-5.03-4.84-7.54-7.26-.5-.48-.33-1.63.31-1.91.35-.15.48.21.66.38 2.48 2.4 4.95 4.82 7.42 7.23v2.07z" fill="#0b0b0b"/><path d="m0 45.08.18-.18c.01.1.03.2.04.31.73.99.48 2.12.41 3.19-.18 2.7-.19 5.39.01 8.08.12 1.63.03 3.27.05 4.9 0 .41-.01.82.03 1.22.08.73.49 1.13 1.22 1.2.35.04.69.03 1.04.03h34.62c.25 0 .5 0 .76-.01 1.08-.07 1.47-.44 1.5-1.52.05-1.54-.04-3.08.03-4.62.13-2.73.07-5.46 0-8.2-.02-.97-.22-1.75-1.34-1.95-.29-.05-.53-.22-.47-.59h2.46v17.54c-.33.18-.68.09-1.02.09-12.83 0-25.66 0-38.48 0-.33 0-.69.14-.99-.13 0-.06-.02-.11-.04-.16-.1-.21-.06-.43-.06-.65 0-5.97 0-11.94 0-17.91 0-.22-.03-.44.07-.65z" fill="#676767"/><path d="m40.54 37.9c-.33.06-.52-.17-.72-.36-1.74-1.63-3.46-3.29-5.09-5.04-.15-.16-.31-.33-.4-.52-.16-.35-.06-.67.25-.92.37-.3.51.09.67.25 1.77 1.69 3.53 3.39 5.29 5.08z" fill="#0c0c0c"/><path d="m40.35 0h.19v17.54c-.1.08-.21.09-.33.05-.17-.1-.23-.26-.23-.45-.21-5.32-.06-10.64-.08-15.96 0-.45.05-.88.45-1.18z" fill="#ddd"/><path d="m40.54 34.89c-.13-.12-.26-.24-.39-.36-.22-.74-.28-1.49-.27-2.26.01-2.14.02-4.27 0-6.41-.01-1.27 0-2.54.28-3.79.01-.24.14-.36.38-.37v13.2z" fill="#676767"/><path d="m40.33 17.56c.07 0 .14-.01.2-.02v3.02c-.06 0-.12 0-.18 0-.64-.74-.65-2.19-.02-3z" fill="#696969"/><path d="m38.08 46.95c.47.25.99.14 1.49.15.56 0 .78.24.78.8 0 5.21-.01 10.42 0 15.63 0 .62-.28.85-.86.81-.16-.01-.32 0-.47 0-12.48 0-24.96 0-37.44 0-1.37 0-1.38 0-1.38-1.33 0-5.93.01-11.87.02-17.8.58.12.98.52 1.41.87 1.17.95 2.51 1.39 4 1.48 3.48.23 6.76-.55 9.94-1.88 2.39-1 4.71-2.15 6.87-3.55.77-.5 1.31-.42 1.9.16 1.32 1.31 2.63 2.62 3.96 3.92.85.83.85.82 2.12.72-.02-.4-.36-.56-.59-.78-1.5-1.53-3.08-2.98-4.39-4.68-.24-.31-.78-.75-.35-1.11.4-.34.79.2 1.09.49 1.59 1.57 3.24 3.09 4.7 4.77 1.14 1.32 2.44 1.58 4.03 1.21-.01-.36-.34-.5-.54-.71-2.22-2.19-4.45-4.36-6.67-6.55-.27-.27-.95-.54-.22-1.05.51-.36.8-1.24 1.69-.32 2.91 2.96 5.91 5.84 8.88 8.74z" fill="#0b0b0b"/><path d="m40.35 0v15.93c0 .47.03.95-.18 1.39-.36.34-.63.09-.9-.14-.29-.25-.55-.52-.81-.79-1.66-1.71-3.39-3.36-5.18-4.94-.79-.7-1.2-1.69-2-2.36-1.31-1.52-2.51-2.92-4.92-2.95-3.27-.04-6.05 1.01-8.72 2.66-3.36 2.07-6.49 4.44-9.25 7.28-3.27 3.36-5.74 7.23-7.44 11.58-.21.53-.4 1.07-.93 1.38 0-9.21 0-18.41 0-27.62.01-1.42.02-1.42 1.44-1.42z" fill="#cacaca"/><g fill="#0b0b0b"><path d="m25.96 7.75c1.85.18 2.97 1.28 3.59 2.92.8 2.12.68 4.25-.1 6.36-1.12 3.04-2.93 5.68-4.86 8.25-3.17 4.21-7.31 7.21-11.91 9.69-2.26 1.22-4.67 1.22-7.09.99-1.52-.14-2.43-1.25-2.94-2.63-.73-1.99-.64-4.01-.05-6.02.71-2.4 1.84-4.62 3.28-6.65 3.57-4.99 8.05-8.97 13.56-11.74 1.27-.64 2.6-1.12 4.05-1.18.82.01 1.64 0 2.46 0z"/><path d="m31.28 9.09c.39-.06.54.27.76.48 2.71 2.58 5.42 5.17 8.13 7.75.05.08.11.16.16.24 0 1 .01 2 .02 3-1.67 2.66-3.35 5.3-5 7.97-.35.56-.55.69-1.07.16-1.73-1.79-3.49-3.54-5.28-5.27-.45-.44-.45-.77-.16-1.29 1.53-2.69 2.83-5.46 3.22-8.59.2-1.59.02-3.06-.79-4.45z"/><path d="m.6 36.19.15.03c1.64 2.63 3.7 3.39 7.89 2.48 2.77-.6 5.18-2.1 7.63-3.46.57-.32.89-.29 1.34.2 1.43 1.54 2.92 3.03 4.45 4.6-4.13 2.01-8.11 4.2-12.77 4.45-1.01-.13-2.02-.05-3.02 0-2.11-.16-3.77-1.18-5.16-2.7-.23-.25-.45-.51-.68-.76-.08-.1-.15-.2-.23-.29-.05-.11-.07-.22-.07-.33-.03-1.11-.01-2.22 0-3.34 0-.37-.02-.77.47-.88z"/><path d="m40.15 22.06c.25.26.19.58.19.89v10.69c0 .3.06.63-.2.88-1.37-1.29-2.72-2.6-4.1-3.87-.37-.34-.4-.59-.15-1.02 1.44-2.51 2.84-5.05 4.26-7.57z"/><path d="m21.64 30.97c.22.17.37.26.5.39 1.54 1.49 3.06 2.99 4.61 4.46.39.37.3.56-.05.87-1.02.9-1.01.91-1.93-.08-1.25-1.33-2.51-2.65-3.76-3.98-.17-.18-.55-.34-.28-.68s.59-.64.91-.98z"/><path d="m25.65 26.66c.18.15.34.25.47.38 1.69 1.64 3.39 3.29 5.08 4.94.22.22.55.48.09.72-.37.19-.58 1.01-1.2.39-1.67-1.67-3.34-3.34-5.01-5.01-.15-.15-.38-.31-.18-.55.23-.29.49-.56.76-.87z"/></g><path d="m33.12 30.71c-.18-.16-.35-.29-.5-.44-1.69-1.68-3.37-3.37-5.08-5.03-.36-.35-.44-.59-.06-.98.44-.46.61.02.8.21 1.76 1.69 3.51 3.4 5.25 5.12.15.15.51.28.27.59-.17.21-.43.34-.69.54z" fill="#0c0c0c"/><path d="m24.01 38.59c0 .31-.24.37-.41.49-.36.27-.7.21-1.01-.11-.72-.75-1.45-1.48-2.17-2.24-.65-.69-1.29-1.38-1.91-2.09-.25-.29-.82-.56-.25-1.06.5-.44.73.06 1 .31 1.45 1.4 2.88 2.82 4.31 4.23.16.15.3.32.44.46z" fill="#1b1b1b"/><path d="m25.96 7.75c-.82.26-1.64.27-2.46 0 .82-.17 1.64-.18 2.46 0z"/><path d="m6.27 44.5c1.01-.28 2.02-.28 3.02 0-1.01.13-2.02.18-3.02 0z"/><path d="m0 45.08v19.21c-.2-.38-.16-.79-.16-1.2 0-5.6 0-11.21 0-16.81 0-.41-.04-.82.16-1.2z" fill="#f9f9f9"/><path d="m.26 40.51c-.02.08-.03.15-.05.23-.07-.07-.14-.14-.21-.21-.11-1.63-.11-3.25 0-4.88.22-.12.35-.06.38.2-.17 1.55.02 3.11-.12 4.66z" fill="#5e5e5e"/><path d="m.26 40.51c0-1.56-.22-3.12.12-4.66.07.11.15.23.22.34-.35.9-.14 1.84-.19 2.76-.03.52.08 1.06-.15 1.56z"/><path d="m4.18 49.26q.14 1.43-1.3 1.44c-.16 0-.32 0-.47 0-.34 0-.42.18-.43.48 0 .35.11.53.48.52.31-.01.63.02.94 0 .56-.05.69.22.69.72 0 .53-.26.56-.69.63-.52.09-1.45-.55-1.43.69 0 .37.1.6.53.57.31-.02.63.02.94 0 .6-.06.91.07.9.79 0 .71-.35.76-.88.72-.91-.06-2.07.37-2.65-.16-.6-.55-.2-1.72-.18-2.62.03-1.27-.24-2.56.16-3.81 1.13-.15 2.25-.21 3.38.03z" fill="#fcfcfc"/><path d="m10.04 59.37c-.28.79-.56 1.58-.84 2.37-.09.26-.12.57-.52.55-.34-.02-.37-.3-.45-.52-.28-.79-.55-1.58-.82-2.37-.25-.19-.23-.47-.22-.74.02-.16 0-.31-.3-.52v1.76 1.97c0 .19-.03.38-.29.4-.24.02-.34-.12-.34-.34 0-1.6 0-3.2 0-4.79 0-.29.2-.34.44-.35.35-.01.59.05.71.45.3 1.02.62 2.03.96 3.04.1.31.09.68.45.95.42-1.28.84-2.51 1.23-3.75.13-.41.26-.8.81-.68.54.11.31.55.31.84.03 1.35 0 2.69.02 4.04 0 .59-.21.74-.73.5-.3-.58-.06-1.2-.13-1.8-.04-.36.07-.75-.3-1.01z" fill="#f8f8f8"/><path d="m15.95 54.12c.01.22.14.37.36.34.3-.05.39-.3.4-.56.02-.69.04-1.38.03-2.07 0-.47.06-.76.65-.75.54 0 .61.26.61.7-.02 1.13 0 2.26-.01 3.39 0 .58-.69 1-.94.59-.38-.6-.5-.17-.77-.01-.59.34-1.25.14-1.46-.51-.4-1.25-.24-2.56-.14-3.83.05-.61.78-.2 1.19-.27.32.99.15 2 .09 3z" fill="#fbfbfb"/><path d="m32.42 52.86c.09-.26.17-.53.28-.79.33-.78.92-1.18 1.78-1.09.88.09 1.3.69 1.48 1.48.06.27 0 .57.06.84.12.49-.09.62-.53.61-.41-.01-.82-.01-1.23 0-.22 0-.56-.1-.54.31.01.42.3.51.66.46s.7-.22 1.09-.19c.48.03.5.21.31.58-.29.57-.77.8-1.38.81-.63.02-1.21-.09-1.52-.71-.18-.36-.3-.75-.45-1.12-.32-.4-.31-.8 0-1.2z" fill="#fcfcfc"/><path d="m27.92 53.21c0 .82-.07 1.37-.37 1.87-.66 1.09-2.13 1.12-2.8.04-.56-.91-.58-1.9-.23-2.89.26-.73.76-1.25 1.58-1.26.86 0 1.4.5 1.65 1.29.12.38.14.79.17.95z" fill="#fcfcfc"/><path d="m30.49 52.62c-.62-.45-.68.08-.7.45-.06.72-.05 1.44-.03 2.16.01.45-.16.6-.6.6-.43 0-.64-.13-.63-.58.01-1.19.03-2.38 0-3.57-.02-.72.59-.77.85-.54.45.38.65.14 1.01-.05.6-.32 1.23.02 1.38.79.22 1.18.08 2.37.09 3.56 0 .43-.33.36-.61.38-.36.02-.58-.06-.6-.5-.05-.9.18-1.81-.15-2.69z" fill="#f3f3f3"/><path d="m4.71 51.23c1.07-.41 1.62 0 1.88 1.13.39-.93.78-1.61 1.93-1.11-1.37 1.48-.89 2.99.06 4.43-1.3.55-1.63-.31-1.95-1.31-.23.45-.4.74-.52 1.04-.25.63-.83.5-1.2.35-.43-.17-.03-.58.11-.77 1-1.34.5-2.57-.31-3.76z" fill="#fdfdfd"/><path d="m38.14 55.89c-.51-.01-1.03-.04-1.35-.52-.16-.24-.47-.61-.16-.8.26-.16.72-.52 1.06 0 .17.26.38.43.7.24.13-.08.3-.2.24-.36-.09-.26-.34-.3-.59-.36-.38-.1-.78-.25-1.09-.49-.53-.4-.47-1.74.04-2.24.56-.55 1.84-.53 2.32.06.17.21.44.51.23.73-.22.23-.63.34-.95.14-.25-.16-.41-.53-.78-.23-.07.06-.12.25-.09.33.15.33.51.32.8.39.97.26 1.38.84 1.25 1.77-.12.88-.68 1.34-1.63 1.34z" fill="#fcfcfc"/><path d="m20.14 55.89c-.51-.02-1.02-.07-1.33-.56-.15-.23-.4-.55-.17-.75.26-.23.72-.39 1.03-.13.26.23.41.57.83.38.15-.07.24-.24.2-.39-.13-.45-.57-.43-.91-.54-.99-.33-1.41-1.12-1.06-2.04.3-.79 1.39-1.17 2.23-.76.42.21.83.61.62 1.01-.15.29-.73.47-1.12 0-.15-.18-.37-.27-.57-.08-.08.07-.15.22-.13.32.04.27.3.31.51.34.93.16 1.61.55 1.58 1.62-.02 1.01-.64 1.59-1.7 1.58z" fill="#fbfbfb"/><path d="m10.4 49.44c.22.67-.24 1.5.69 1.88.14.06.22.92-.11.99-.82.18-.52.74-.53 1.16 0 .41-.22.88.43 1.16.39.17.51.85.12 1.11-.42.28-1.03.3-1.45-.2-.19-.23-.2-.51-.24-.8-.13-.91.18-1.84-.45-2.73-.39-.56.55-1.98 1.55-2.58z" fill="#fcfcfc"/><path d="m11.99 60.3c.02-1.26.68-2.05 1.73-2.06.94 0 1.61.67 1.7 1.66.05.47-.11.62-.56.6-.54-.02-1.07.01-1.61 0-.58-.02-.64.23-.43.69.35.76 1.14.87 1.75.22.21-.22.4-.51.67-.26.28.25-.04.52-.2.71-.52.58-1.19.67-1.9.43-.76-.26-1.16-.97-1.14-1.98z" fill="#f8f8f8"/><path d="m32.13 60.74c0 .31-.02.63 0 .94.05.52.03.91-.59.41-.26-.21-.4.04-.58.12-.62.26-1.22.33-1.77-.14-.34-.29-.43-.69-.3-1.12.22-.73.83-.87 1.48-.95.03 0 .06 0 .09-.01.34-.09.81.03.95-.42.1-.29-.08-.58-.37-.68-.42-.13-.88-.19-1.24.17-.2.2-.37.7-.68.33-.3-.35.11-.69.41-.88.63-.38 1.32-.39 1.99-.09.6.26.56.84.57 1.38v.94h.03z" fill="#f8f8f8"/><path d="m21.27 60.6c0 .25.05.51-.01.75-.08.32.57 1.45-.67.66-.11-.07-.43.19-.66.27-.87.31-1.68 0-1.87-.72-.2-.75.28-1.35 1.24-1.53.12-.02.25-.02.37-.05.34-.09.8.03.93-.45.06-.22-.05-.45-.25-.57-.41-.23-.83-.21-1.26-.01-.27.13-.25.73-.76.48-.14-.07-.15-.2-.11-.32.14-.42.46-.67.86-.8 1.35-.43 2.16.15 2.17 1.53v.75h.01z" fill="#f8f8f8"/><path d="m12.89 51.15c.01.19.07.31.25.12.34-.36.8-.46.97 0 .13.34.09.98-.47 1.13-.37.1-.54.24-.54.6.1.18.15.35-.04.51-.03.37-.13.74-.09 1.1.11.93-.17 1.41-1.19 1.21-.25-1.47-.15-2.96-.07-4.43.04-.69.73-.36 1.17-.24z" fill="#fafafa"/><path d="m34.35 58.24c.32 0 .63.03.9.21.29.2.65.51.42.81-.27.37-.51-.02-.72-.25-.24-.27-.57-.23-.88-.2-.27.03-.49.15-.52.45-.02.26.17.4.39.47.38.14.78.25 1.17.37.5.16.83.49.83 1.01 0 .55-.3.93-.82 1.14-.78.31-1.79.06-2.09-.56-.09-.18-.27-.42 0-.58.2-.12.41-.08.53.19.17.39.51.54.92.52.37-.02.71-.12.77-.54.07-.42-.26-.52-.57-.61-.24-.07-.48-.14-.72-.21-.63-.19-1.08-.53-.99-1.27.08-.61.6-.97 1.4-.96z" fill="#f7f7f7"/><path d="m25.95 60.28v.47c.04.51.26.91.78 1.05.51.14.85-.12 1.06-.56.1-.22.2-.43.47-.3.34.16.16.43.05.63-.31.58-.82.85-1.47.82-1.03-.06-1.7-1.01-1.6-2.26.11-1.31.84-2.01 1.96-1.88.52.06.87.33 1.1.77.09.17.19.36-.05.48-.18.1-.38.08-.48-.13-.24-.5-.63-.71-1.15-.5-.63.25-.7.82-.68 1.41z" fill="#f6f6f6"/><path d="m23.68 53.43c0 .62-.01 1.25 0 1.87.01.42-.2.53-.58.52-.35 0-.62-.04-.61-.48 0-1.25.01-2.5 0-3.74 0-.42.2-.52.58-.52.42 0 .64.11.62.58-.03.59 0 1.19 0 1.78z" fill="#f2f2f2"/><path d="m22.92 62.23c-.24.1-.48.1-.73 0-.14-1.82-.26-3.64.06-5.45h.6c.13.05.18.15.17.29-.07 1.72.14 3.44-.11 5.16z" fill="#ddd"/><path d="m17.61 61.74c.04.33.06.65-.42.63-.46-.02-.81-.22-.85-.71-.04-.5.02-1.01-.04-1.5-.05-.48.18-.98-.29-1.48-.16-.17.32-1.03.61-1.52.12-.21.31 0 .33.22.04.41-.14.92.54.98.14.01.15.28.08.31-1.21.58-.38 1.65-.6 2.46-.03.1.06.23.09.35.19.08.44 0 .56.25z" fill="#eee"/><path d="m24.48 60.3v1.59c0 .19-.03.38-.28.41-.3.03-.37-.16-.37-.41 0-1.06 0-2.12 0-3.18 0-.24.06-.44.37-.41.25.03.27.22.28.41z" fill="#c8c8c8"/><path d="m23.67 49.87c.07.46-.09.67-.6.67-.46 0-.59-.19-.59-.61 0-.45.11-.69.63-.68.45.01.64.18.57.62z" fill="#ebebeb"/><path d="m32.42 52.86v1.2c-.09.45-.18.9-.27 1.35-.03 0-.06 0-.08-.01v-3.04c.37.05.29.32.35.5z" fill="#070707"/><path d="m12.89 51.15c-.9-.25-1.22.06-1.16 1 .09 1.22.04 2.44.05 3.66-.42-1.44-.24-2.92-.14-4.37.05-.76.73-.57 1.24-.29z" fill="#111"/><path d="m22.31 55.57c-.54-1.46.07-2.74 0-4.03z" fill="#070707"/><path d="m22.25 56.77c-.02 1.82-.04 3.64-.06 5.45-.3-1.82-.4-3.64.06-5.45z"/><path d="m22.92 62.23c-.02-1.82-.04-3.64-.06-5.45.23.25.28.56.26.88-.09 1.52.23 3.07-.2 4.57z"/><path d="m10.04 59.37c.09-.35.18-.7.27-1.05.05 0 .11 0 .16.01v3.84c-.44-.36-.18-.85-.21-1.27-.04-.52-.07-1.03-.22-1.54z" fill="#050505"/><path d="m7.2 58.65c.13.23.23.47.22.74-.29.84-.14 1.72-.3 2.57 0-1.1-.24-2.21.09-3.31z" fill="#050505"/><path d="m20.44 56.84c-.05.13-.07.23-.12.29-.24.26-.33.72-.81.66-.2-.03-.14-.22-.08-.37.16-.43.35-.82 1.01-.57z" fill="#d8d8d8"/><path d="m23.63 58.72v3.05s-.05 0-.07 0v-3.05s.05 0 .07 0z" fill="#010101"/><path d="m24.79 58.74v3.04s-.06 0-.09 0v-3.07s.06.02.09.03z" fill="#060606"/><path d="m4.18 49.26c-1.13 0-2.25-.02-3.38-.03 1.13-.33 2.25-.33 3.38.03z"/><path d="m5.81 47.77h2.3s0 .06 0 .09h-2.32z" fill="#010101"/><path d="m30.49 52.63v2.7c-.12-.91-.33-1.81 0-2.71z"/><path d="m15.95 54.12c-.18-.99-.04-2-.09-3 .44.99.32 1.99.09 3z"/><path d="m17.61 61.74c-.19-.06-.46.04-.56-.25v-2.03c.31.75-.02 1.6.56 2.27z"/><path d="m13.06 53.5c.01-.17.03-.34.04-.51.32.78.13 1.58-.04 2.38z"/><path d="m34.26 53.01c-.22-.05-.58.1-.53-.32.04-.32.19-.64.57-.62s.52.35.52.67c0 .41-.36.21-.56.28z" fill="#111"/><path d="m25.53 53.51c0-.16 0-.29.02-.41.04-.38.09-.82.56-.84.48-.02.53.44.6.8.02.12.03.25.02.37-.03.48.06 1.17-.59 1.19-.68.02-.54-.69-.61-1.12z" fill="#0e0e0e"/><path d="m13.7 60.01c-.28-.25-.94.33-.92-.4 0-.5.44-.82.99-.81.56.01.98.36.93.85-.05.63-.67.13-1 .35z" fill="#131313"/><path d="m30.36 61.87c-.45 0-.86-.15-.8-.61.11-.96 1.02-.6 1.58-.83.33-.14.33.18.31.39-.06.67-.47.99-1.08 1.06z" fill="#121212"/><path d="m19.48 61.87c-.47-.02-.85-.22-.77-.66.15-.87 1-.56 1.54-.78.3-.12.39.08.37.35-.06.71-.49 1.05-1.14 1.1z" fill="#131313"/></g></svg>