<svg viewBox="0 0 74.62 83.91" xmlns="http://www.w3.org/2000/svg"><g fill="#b1b1b1"><path d="m74.53 34.59c-.11-1.43-.28-2.85-.55-4.25-.69-3.62-1.89-7.06-3.6-10.32-2.24-4.26-5.2-7.94-8.85-11.08-2.26-1.94-4.72-3.58-7.37-4.92-2.05-1.04-4.19-1.89-6.4-2.53-3.12-.9-6.3-1.41-9.54-1.46-.07 0-.14 0-.21-.04h-1.39c-.07.04-.14.04-.21.04-1.24 0-2.48.11-3.71.26-2.37.29-4.68.8-6.95 1.54-2.23.73-4.37 1.66-6.43 2.8-2.72 1.5-5.21 3.3-7.47 5.42-1.08 1.01-2.1 2.07-3.05 3.2-1.83 2.17-3.41 4.52-4.71 7.05-1.67 3.24-2.83 6.66-3.49 10.24-.31 1.7-.52 3.41-.57 5.14-.05 1.44-.05 2.89.07 4.33.11 1.43.29 2.84.55 4.25.67 3.51 1.83 6.86 3.47 10.04.67 1.29 1.4 2.53 2.21 3.73s1.69 2.35 2.62 3.45c.9 1.05 1.86 2.03 2.85 3 .13.13.22.11.29-.05.02-.04.04-.07.07-.11 1.41-2.34 2.82-4.68 4.23-7.02 2.98-4.94 5.96-9.89 8.94-14.83 1.75-2.91 3.5-5.82 5.26-8.73.12-.2.12-.2.24 0 .64 1.11 1.28 2.21 1.92 3.32 2.41 4.18 4.83 8.36 7.25 12.53.09.15.08.26 0 .41-.45.76-.89 1.52-1.33 2.29-1.11 1.92-2.22 3.84-3.33 5.76-.93 1.61-1.87 3.23-2.8 4.84-.11.2-.1.22.14.23h.15 12.08 6.76c.3 0 .31-.02.17-.26-1.23-2.13-2.47-4.27-3.7-6.4-1.24-2.15-2.49-4.3-3.73-6.45-.09-.15-.09-.27 0-.42.48-.82.96-1.65 1.44-2.47.98-1.69 1.95-3.38 2.92-5.07.1-.17.15-.15.24 0 .24.43.5.85.75 1.27 2.32 3.94 4.63 7.89 6.95 11.83 1.82 3.1 3.65 6.2 5.48 9.3.24.41.17.45.56.08 1.06-1.01 2.08-2.06 3.03-3.18 1.89-2.23 3.5-4.65 4.83-7.25 1.04-2.05 1.88-4.17 2.53-6.38.84-2.88 1.33-5.83 1.45-8.83.06-1.44.05-2.87-.06-4.31zm-28.98 24.61c.19.34.19.34-.2.34-1.05 0-2.1 0-3.14 0-1.08 0-2.17 0-3.25 0-.25 0-.26-.02-.14-.23 1.08-1.88 2.17-3.75 3.25-5.63.14-.24.15-.24.28 0 1.07 1.84 2.13 3.69 3.2 5.53zm25.44-20.6c-.08 2.17-.37 4.31-.88 6.43-.97 4.09-2.66 7.86-5.04 11.32-.56.82-1.16 1.6-1.79 2.37-.16.19-.17.19-.29-.02-.88-1.49-1.75-2.98-2.63-4.46-2.61-4.43-5.22-8.87-7.82-13.3-1.18-2.01-2.36-4.01-3.54-6.02-.04-.06-.06-.13-.15-.18-.25.43-.51.87-.76 1.31-1.91 3.3-3.82 6.61-5.73 9.91-.14.25-.15.25-.29 0-2.09-3.62-4.18-7.23-6.27-10.85-1.62-2.8-3.24-5.6-4.86-8.41-.14-.25-.15-.25-.3 0-2.17 3.6-4.34 7.2-6.51 10.8-1.91 3.17-3.82 6.35-5.74 9.53-1.73 2.88-3.47 5.75-5.21 8.63-.57.95-1.14 1.9-1.71 2.84-.13.22-.14.22-.31.02-2.71-3.34-4.72-7.05-6.01-11.15-.64-2.04-1.08-4.12-1.32-6.24-.2-1.72-.26-3.44-.19-5.17.11-2.86.59-5.67 1.42-8.41.93-3.06 2.28-5.93 4.03-8.61.98-1.5 2.08-2.92 3.29-4.24 2.49-2.74 5.35-5.01 8.58-6.81s6.67-3.04 10.32-3.7c1.36-.25 2.73-.41 4.11-.48.69-.04 1.39-.07 2.08-.07 4.79.05 9.38 1.02 13.74 3.01 2.85 1.29 5.47 2.95 7.85 4.97 3.08 2.61 5.62 5.66 7.61 9.18 1.81 3.2 3.07 6.61 3.76 10.23.24 1.28.41 2.57.5 3.86.1 1.25.11 2.5.07 3.75z"/><text font-family="MyriadPro-Regular, 'Myriad Pro'" font-size="18.53" transform="translate(4.87 79.28)"><tspan x="0" y="0">madison</tspan></text></g></svg>