<svg viewBox="0 0 127.4 63.88" xmlns="http://www.w3.org/2000/svg"><path d="m112.26 7.19c-1.77 1.79-3.54 3.58-5.31 5.38-.2.23-.09.49-.09.74v27.59.49c-.03.6-.24.77-.85.71-1.1-.12-2.16-.45-3.24-.68-2.92-.61-5.84-1.16-8.78-1.63-3.03-.48-6.09-.77-9.13-1.14-1.31-.16-2.62-.19-3.92-.35-1.58-.19-3.18-.19-4.76-.26-2.36-.11-4.73-.31-7.1-.18-2.71.14-5.43.17-8.15.35-1.85.12-3.69.32-5.53.52-1.72.19-3.43.44-5.15.69-1.14.17-2.26.39-3.39.58-2.52.41-5.01 1-7.5 1.59-2.74.65-5.43 1.46-8.11 2.33-3.69 1.2-7.33 2.5-10.85 4.12-3.47 1.59-6.9 3.29-10.15 5.32-.5.31-.98.64-1.43 1.02-.25.21-.49.39-.79.08-.29-.45-.11-.92-.02-1.37.75-3.94 1.49-7.88 2.22-11.83 1.73-9.22 3.47-18.44 5.18-27.67.18-.96.6-1.52 1.48-1.92 4.37-2.02 8.86-3.74 13.48-5.1 5.01-1.48 10.1-2.53 15.26-3.3 3.34-.5 6.7-.82 10.07-1.08 5.15-.41 10.31-.46 15.47-.37 3.23.06 6.46.24 9.69.5 3.51.28 7.01.6 10.5 1.01 5.97.71 11.9 1.65 17.8 2.73.9.16 1.81.26 2.69.54.28.09.65.13.43.59z" fill="#494949"/><path d="m112.26 7.19c-.12-.26-.37-.25-.6-.29-7.42-1.43-14.88-2.62-22.39-3.46-5.45-.6-10.92-1.03-16.41-1.2-3.31-.11-6.62-.15-9.92-.06-9.78.25-19.46 1.35-28.97 3.77-5.88 1.5-11.58 3.52-17.07 6.11-.71.33-.99.78-1.13 1.51-2.05 11.07-4.13 22.14-6.21 33.2-.44 2.33-.9 4.65-1.35 6.98-.04.21-.04.42-.06.63.01.43-.12.8-.37 1.17-1.08 1.62-2.06 3.29-3.09 4.93-.29.46-.59.9-.98 1.28-.21.21-.46.44-.49.79-.07.09-.13.2-.21.28-.09.09-.19.25-.34.17-.16-.08-.09-.25-.06-.37.08-.39.16-.77.24-1.16.03-.16.05-.33-.14-.42-.18-.15-.12-.33-.08-.51 1.73-8.22 3.32-16.46 4.99-24.68 1.12-5.49 2.23-10.99 3.33-16.48.53-2.62 1.09-5.23 1.57-7.86.17-.94.58-1.59 1.47-1.95.94-.39 1.82-.92 2.76-1.3.59-.22 1.15-.51 1.74-.74.6-.22 1.21-.43 1.77-.74 1.33-.59 2.76-.91 4.13-1.37 6.84-2.27 13.89-3.61 21.04-4.46 3.1-.37 6.21-.59 9.33-.75 3.8-.2 7.6-.21 11.4-.13 4.53.09 9.05.37 13.56.77 9.48.85 18.86 2.34 28.17 4.26 2.02.42 4.03.88 6.05 1.33.91.2.91.22.31.93-.17.23-.35.14-.53.02-.47-.23-.95-.39-1.47-.18z" fill="#979797"/><path d="m106.79 44.4c-2.89-.31-5.78-.64-8.68-.91-11.36-1.06-22.72-1.25-34.1-.29-11.01.93-21.81 2.89-32.31 6.35-8.44 2.78-16.49 6.39-23.82 11.47-1.25.86-2.46 1.78-3.68 2.85 0-.77.21-1.39.32-2.02-.14-.85.41-1.3.99-1.76 3.97-3.17 8.25-5.87 12.74-8.23 4.26-2.23 8.68-4.11 13.23-5.7 6.28-2.2 12.71-3.79 19.27-4.89 2.03-.34 4.07-.65 6.13-.77 2.73-.28 5.45-.58 8.19-.7.78 0 1.57.04 2.35-.12.09 0 .17-.02.26-.02h11.94.26c.79.16 1.6.13 2.4.13 1.53.17 3.07.17 4.6.38 1.27.17 2.58.18 3.87.3 1.83.17 3.64.51 5.47.7 2.78.3 5.52.84 8.28 1.29.4.07.79.16 1.2.17.14.03.27.08.41.09.62.05.84.39.76.99-.03.23.05.46-.06.68z"/><path d="m56.8 40.74c-2.13.32-4.27.62-6.39.97-8.81 1.47-17.35 3.89-25.56 7.41-6.9 2.97-13.39 6.67-19.28 11.38-.46.37-.9.75-1.05 1.35-.04-.19 0-.49-.33-.2s-.65.59-.98.88c-.19-.11-.08-.24 0-.35 1.67-2.59 3.19-5.28 4.95-7.82 1.27-.97 2.66-1.77 4.04-2.58 2.23-1.3 4.57-2.38 6.88-3.54 3.57-1.79 7.35-3.07 11.1-4.41 2.49-.89 5.04-1.62 7.6-2.29 2.6-.68 5.24-1.28 7.89-1.75 2.76-.48 5.54-.89 8.32-1.24 4.35-.56 8.71-.78 13.08-.99 3.1-.15 6.19.04 9.28.1 2.35.04 4.73.1 7.06.43 2.74.39 5.49.54 8.23.99 1.79.29 3.61.5 5.4.83 2.79.5 5.58 1.02 8.32 1.72.11.03.23.05.35.07 1.01.16 1.09.09 1.09-.95 0-7.42 0-14.83 0-22.25 0-1.69 0-3.38 0-5.06 0-.3-.04-.62.17-.88 0 2.13-.03 4.26-.03 6.39v24.87c0 .19.11.43-.12.57 0-.14-.02-.28 0-.42.07-.62-.16-.98-.82-1.02-.11 0-.22-.07-.33-.11-.46-.41-1.07-.3-1.61-.4-2.26-.39-4.54-.73-6.81-1.05-1.58-.22-3.17-.43-4.75-.64-2.13-.28-4.28-.46-6.42-.63-1.86-.14-3.72-.18-5.58-.28-4.24-.23-8.48-.11-12.72-.08-2.28.02-4.57.17-6.84.4-1.37.14-2.74.25-4.1.44-.09.01 0-.04-.06.01-.05.03.05.07.07.11z" fill="#505050"/><path d="m113.73 7.36c.18 0 .35-.01.53-.02.09.05.18.1.28.15-.19.73-.22 1.48-.21 2.23v18.97c0 .6-.02 1.19-.2 1.76-.08.18-.24.36-.01.55.23.31.2.67.2 1.02v12.46c0 .35.01.71-.2 1.02-1.15-.02-2.26-.36-3.4-.45-.56-.05-1.11-.22-1.67-.21-.68 0-.83-.34-.84-.91-.03-2.09-.11-4.17-.12-6.26-.03-8-.03-16-.05-23.99 0-.51.14-.87.51-1.23 1.74-1.68 3.45-3.38 5.17-5.07z" fill="#505050"/><path d="m114.12 45.5c-.18-.3-.14-.63-.14-.96 0-4.19 0-8.38 0-12.57 0-.33-.03-.66.13-.96 1.44-.61 2.73-1.43 3.86-2.78-.07 1.09-.15 2-.19 2.92-.23 4.83.37 9.55 1.87 14.15.04.11.08.22.11.33.07.2.18.32.42.26.26-.06.23-.25.21-.44-.19-1.58-.27-3.18-.3-4.77-.06-2.77.05-5.53.62-8.26.05-.25.03-.61.36-.6.27 0 .23.36.29.58.73 2.54 1.67 4.98 3.21 7.15.35.49.78.94 1.19 1.38.15.16.29.45.56.31.3-.16.07-.42.01-.62-.85-2.69-1.52-5.42-2.02-8.19-.44-2.42-.76-4.86-.84-7.33.26-.11.35.11.47.23 1.21 1.13 2.14 2.47 2.99 3.89.38.64.42 1.24.42 1.91 0 5.23-.01 10.46-.02 15.69 0 1.16 0 1.15-1.1.92-4.02-.84-8.05-1.59-12.11-2.24z"/><path d="m16.91 8.34c-1.03.56-2.06 1.13-3.1 1.66-.51.26-.75.64-.86 1.19-1.16 5.82-2.33 11.63-3.51 17.45-2.11 10.46-4.22 20.91-6.33 31.37-.08.37-.18.73-.42 1.03-.85.79-1.71 1.58-2.7 2.5.36-1.81.69-3.43 1.02-5.06 2.79-13.86 5.58-27.72 8.37-41.57.35-1.75.71-3.49 1.06-5.24.07-.34.18-.61.5-.8 1.81-1.05 3.66-1.99 5.63-2.7.16-.05.32-.1.33.17z" fill="#494949"/><path d="m16.91 8.34c-.11-.06-.22-.11-.33-.17.53-.33 1.11-.53 1.7-.7.16-.06.32-.12.31.15-.56.24-1.12.47-1.68.71z" fill="#616161"/><path d="m18.59 7.63c-.1-.05-.2-.1-.31-.15.63-.32 1.29-.54 1.98-.72-.45.5-1.1.6-1.67.87z" fill="#747474"/><g fill="#fefefe"><path d="m38.6 23.97c-.46.05-.29.42-.29.65.05 2-.05 4 .14 6 .04.41-.05.67-.45.79-.11.35-.42.42-.71.49-.87.19-1.73.4-2.6.59-.78.17-1.03-.04-1.06-.85-.02-.66.1-1.3.12-1.96.06-1.73.03-3.46 0-5.19-.04-2.83-.01-5.67-.01-8.5 0-.54.01-1.08-.06-1.61-.05-.36 0-.69.27-.96.07-.36.36-.3.61-.31 1.01 0 2.02.03 3.02-.02.69-.03 1.03.14.85.88-.02.09 0 .19.01.28.15 1.35.04 2.71.09 4.07.02.48.06.98.76.9.55-.14.63-.56.64-1.03.02-1 0-2 .02-3 0-.34-.05-.72.33-.93q.06-1.13 1.26-1.13c.87 0 1.73.01 2.6 0 .44 0 .61.12.58.61-.27 5.17-.28 10.35-.05 15.53.03.64-.04 1.08-.76 1.17-.09.35-.41.36-.67.41-.84.19-1.7.32-2.55.43-.61.07-.87-.18-.82-.81.13-1.61.04-3.22.06-4.83.01-1.06-.01-1.07-1.02-1.39-.14-.05-.24-.14-.31-.26z"/><path d="m32.67 20.72c-.28 1.54-.85 2.93-2.11 3.95-.75 1.16-2.56 1.68-3.94 1.12-.28.48-.12 1-.12 1.5 0 2.08.02 4.16.04 6.25 0 .33.01.66-.36.83-.14.32-.43.46-.73.57-.93.34-1.86.66-2.8.93-.76.21-1.07 0-1.12-.77-.05-.68.03-1.36.04-2.04.11-5.72.13-11.44 0-17.16 0-.28-.05-.56-.04-.84.02-.26.06-.52.32-.66q.1-1.26 1.43-1.26c1.05 0 2.1-.02 3.15 0 2.85.05 5.11 1.04 6.11 3.96.14.05.24.14.29.28.34 1.03.26 2.07.1 3.11-.02.12-.13.19-.24.24z"/><path d="m80.73 13.26c.08-.04.17-.12.25-.12 2.01.02 4.03-.19 6.03.16 2.52.43 3.94 2.02 4.18 4.57.01.11.06.22.09.33.19.08.29.23.31.43.1.93.07 1.86-.17 2.77-.06.21-.18.38-.41.44-.38 1.27-1.05 2.32-2.26 2.95-.4.45-.88.77-1.48.81-.83.07-1.6.19-2.03 1.03 0 1.72-.01 3.44 0 5.17 0 .41-.07.69-.56.61-.14.1-.29.16-.46.14-1.11-.15-2.21-.42-3.28-.74-.32-.1-.37-.41-.38-.69-.05-1.57-.08-3.14.01-4.7.14-2.29.15-4.58 0-6.87-.09-1.33-.02-2.67-.04-4 0-.47.01-.94-.05-1.4-.05-.34.02-.64.27-.89z"/><path d="m96.78 17.76c-.46.81-.35 1.62.04 2.41.59 1.21 1.44 2.25 2.25 3.31.78 1.03 1.43 2.14 2.01 3.3 1.36 2.72.42 6.15-1.38 7.63-.39.32-.86.48-1.22.81-.23.43-.65.6-1.08.68-1.78.35-3.48.12-5.07-.79-.32-.18-.74-.36-.63-.88.01-1.23.02-2.47.04-3.7 0-.13 0-.32.07-.39.16-.13.29.06.41.15 1.26.87 2.58 1.39 4.13.84.08-.22.19-.43.35-.6.73-.77.66-1.61.17-2.45-.46-.79-1.07-1.48-1.66-2.18-.96-1.15-1.89-2.32-2.58-3.67-.84-1.65-.89-3.37-.48-5.13.16-.69.45-1.34 1.1-1.74 1.86-2.38 4.17-3.05 6.98-2.06.56.2.84.48.8 1.12-.06.91-.03 1.83-.04 2.74 0 .2.06.43-.13.59-.34.09-.57-.13-.83-.27-.91-.48-1.81-.57-2.68.1-.17.13-.35.22-.58.16z"/></g><path d="m72.12 26.37c-.14-.33-.13-.69-.13-1.04 0-2.25.01-4.5-.02-6.75-.02-1.05-.12-2.1-.21-3.15-.05-.59.7-1.84 1.26-2.01.06-.02.16.08.24.13.48.18.47.61.48 1 .03 1.03.01 2.06.01 3.09v10.76c0 1.36.15 1.5 1.47 1.72.74.12 1.54.16 2.12.76.04.06.12.12.12.17-.07.58-1.14 1.38-1.71 1.29-.97-.16-1.94-.35-2.92-.46-.66-.07-1.02-.27-.84-1 .03-.13.04-.28-.08-.39-.14-.05-.24.04-.29.14-.52.95-1.31.98-2.28.83-1.88-.28-3.78-.33-5.68-.38-.68-.02-1.02-.22-.82-.96.03-.1-.02-.23-.03-.39-.43.13-.61.48-.82.76-.28.38-.62.52-1.08.52-2.23 0-4.46-.1-6.68.11-.54.05-.73-.12-.69-.72.32-4.43-.07-8.86 0-13.29 0-.19-.02-.38-.07-.56-.41-1.46.27-2.46 1.36-3.3.23.09.29.29.32.51.12.97.32 1.94.31 2.93-.01 3.07-.01 6.14 0 9.21 0 .64-.11 1.26-.13 1.89-.03.86.24 1.14 1.11 1.17.91.02 1.83-.01 2.74.02.32.01.68-.04.86.34.85.27 1.72.12 2.58.12.43 0 .38-.39.4-.69.09-1.67-.12-3.32-.14-4.99-.04-2.88.1-5.77-.22-8.65-.03-.26.05-.46.22-.64.41-.42.76-.9 1.25-1.22.4.12.45.44.46.78.09 3.66.26 7.32.13 10.98-.04 1.01-.12 2.01-.1 3.02.02.8.27 1.04 1.07 1.07 1.6.06 3.18.23 4.77.38 1.03.1 1.32-.15 1.34-1.18 0-.38 0-.75.01-1.13.01-.31.06-.61.33-.81z" fill="#020202"/><path d="m72.12 26.37c0 1.05 0 2.11.03 3.16.01.45-.18.49-.55.44-2.3-.29-4.62-.47-6.94-.54-.43-.01-.54-.13-.5-.58.29-3.74.18-7.49.15-11.24 0-1.45.05-2.91-.21-4.35.2-.17.44-.13.67-.13h2.04c1.85 0 1.81 0 1.72 1.88-.15 3.33-.06 6.66-.05 9.99 0 .79.3 1.05 1.05 1.07.86.03 1.73.09 2.58.3z" fill="#fefefe"/><path d="m60.01 29.32c-1.52.02-3.05.02-4.57.07-.45.01-.6-.03-.56-.56.29-4.59.18-9.19.09-13.78-.01-.59-.23-1.19-.16-1.8.61-.28 1.25-.1 1.87-.13.66-.03 1.32.02 1.97-.02.56-.03.73.17.7.73-.18 3.19-.17 6.38-.16 9.57 0 .56.03 1.13.04 1.69 0 .38.17.54.56.53.77-.01 1.55.05 2.32.01.57-.02.81.14.77.74-.05.75-.04 1.5 0 2.25.02.51-.13.72-.67.69-.72-.04-1.45 0-2.18 0z" fill="#fefefe"/><path d="m77.34 30.88c-1.24-.21-2.48-.43-3.71-.64-.37-.06-.3-.32-.29-.59.16-5.07.13-10.13.02-15.2 0-.3-.06-.61-.1-.91.02-.36.23-.46.56-.45 1.12.01 2.25.02 3.38 0 .43 0 .56.15.54.59-.23 5.53-.15 11.06-.05 16.58 0 .27.11.59-.34.61z" fill="#fefefe"/><path d="m47.62 13.26c.58-.29 1.2-.1 1.79-.13.7-.03 1.41.02 2.11-.02.51-.02.64.17.6.66-.27 3.96-.12 7.92-.15 11.88 0 1.05-.03 2.11.11 3.16.04.28.14.63-.27.77-.08.2-.24.28-.43.31-1.06.18-2.13.34-3.21.3-.72-.02-.87-.25-.85-.98.15-5.01.08-10.02.03-15.03 0-.35.07-.64.26-.92z" fill="#fdfdfd"/><path d="m21.83 14.39c.15 1.87.19 3.75.19 5.62 0 5.02.09 10.04-.18 15.05-.03.57.09.69.65.49 1.21-.44 2.45-.8 3.68-1.2.05.05.14.13.13.15-.51.73-.81 1.64-1.81 1.94-1.15.34-2.28.74-3.4 1.15-.49.18-.64.05-.62-.45.24-5.54.1-11.08.07-16.61 0-1.31-.05-2.63-.24-3.93-.2-1.34.49-2.22 1.31-3.16.18.31.03.68.23.94z" fill="#020202"/><path d="m80.73 13.26c.35 4.42.17 8.84.19 13.26 0 1.5.06 3-.09 4.49-.03.35.09.49.44.57 1.14.26 2.27.56 3.4.84.09.08.24.15.24.23.03.41-1.06 1.33-1.48 1.23-1.17-.26-2.33-.54-3.5-.81-.51-.12-.49-.5-.47-.88.13-2.01-.02-4.03 0-6.04.02-2.58 0-5.16-.03-7.74 0-.91.02-1.85-.16-2.73-.25-1.31.59-1.84 1.45-2.43z" fill="#020202"/><path d="m32.67 20.72c.07-1.21.06-2.43-.15-3.63 0-.26.08-.54 0-.77-.42-1.26.49-1.99 1.11-2.83.08-.11.19-.12.32-.09.24 1.96.22 3.93.2 5.89-.04 4.12.18 8.24-.17 12.36-.04.52.07.64.6.51 1.13-.29 2.28-.51 3.42-.75.06.07.17.18.16.2-.44.66-.7 1.5-1.63 1.71-1.1.24-2.19.48-3.29.73-.36.08-.68.11-.64-.42.34-3.64.03-7.29.07-10.94 0-.65 0-1.31-.01-1.96z" fill="#010101"/><path d="m47.62 13.26c.23 2.01.21 4.03.19 6.04-.04 3.38.17 6.76-.15 10.13-.04.44.12.52.52.48 1.21-.12 2.43-.22 3.64-.33.04.05.13.14.12.15-.57.67-.89 1.61-2.01 1.65-.98.04-1.96.18-2.93.3-.53.06-.71-.05-.7-.67.07-5.2.21-10.4-.16-15.6-.02-.3-.02-.56.2-.78.45-.44.72-1.05 1.29-1.38z" fill="#010101"/><path d="m93.26 15.38c-1.44 2.62-1.39 5.19.24 7.71.77 1.18 1.68 2.25 2.59 3.33.51.61 1.02 1.23 1.34 1.97.52 1.18.11 2.22-1.08 2.76-.12-2.05-1.68-3.25-2.81-4.71-.83-1.07-1.71-2.11-2.25-3.37-.17-.39-.29-.79-.29-1.22.29-1.2.31-2.42.27-3.64.08-1.19.82-2 1.61-2.77.11-.1.23-.15.38-.06z" fill="#020202"/><path d="m38.6 23.97c1.76-.26 1.78-.26 1.75 1.53-.03 1.68.02 3.36-.15 5.04-.04.42.1.47.47.4 1.08-.19 2.17-.35 3.25-.52.17.07.38-.03.57.15-.57.93-1.18 1.72-2.46 1.74-.86.01-1.71.28-2.56.46-.45.09-.63.02-.62-.51.05-1.62.06-3.24.05-4.86 0-.68.13-1.36-.36-2.01-.26-.34-.16-.95.06-1.42z" fill="#020202"/><path d="m91.7 34.25c2.07 1.64 4.34 1.86 6.78.99.27.14.08.26-.03.38-.47.51-1.04.89-1.69 1.1-1.97.65-3.88.47-5.7-.55-.52-.29-.79-.67-.75-1.3.04-.72 0-1.45 0-2.18q0-1.46 1.19-2.48c.13.84.02 1.65.07 2.45.03.53-.13 1.08.13 1.59z" fill="#010101"/><path d="m40.28 14.25c.02 1.42.06 2.83.06 4.25 0 1.1.21 1.02-1.02 1.12-.56.18-.65-.16-.66-.59-.02-.87.04-1.74-.12-2.59-.03-.3-.02-.6-.02-.91.02-.25-.05-.53.22-.7.41-.47.82-.93 1.28-1.46.1.34.18.61.26.88z" fill="#020202"/><path d="m96.78 17.76c.96-1.4 2.81-1.39 4.09.01-.17.59-.7.85-1.09 1.25-.13.13-.31.14-.44 0-.58-.67-1.35-.89-2.19-.96-.18-.02-.3-.12-.37-.28z" fill="#030303"/><path d="m26.62 25.79c.75-.13 1.52-.06 2.26-.31.6-.2 1.16-.46 1.68-.82-.07.78-.69 1.18-1.16 1.67-.6.63-1.39.94-2.21 1.17-.36.1-.54 0-.54-.39 0-.45-.01-.89-.02-1.34z" fill="#060606"/><path d="m85.23 26.64c0-.09-.02-.19-.02-.28-.01-.95-.01-.96.96-.97.9-.02 1.74-.25 2.56-.59-.44 1.12-2.31 2.11-3.51 1.84z" fill="#060606"/><path d="m38.75 16.35c.25.83.08 1.68.13 2.52.02.34.01.67.45.75-.94.18-.99.16-.97-.75.03-1.54-.12-3.09.09-4.62.24.12.16.41.3.58 0 .24-.01.47-.02.71-.14 1.06-.02 2.13-.06 3.19.02.09.12-.01.03.01-.02 0-.04 0-.04-.03.06-.78-.1-1.57.08-2.35z" fill="#3b3b3b"/><path d="m106.53 16.56c-.01.57-.53 1.07-1.1 1.05s-1.06-.55-1.02-1.12c.03-.56.5-1 1.07-1 .61 0 1.07.47 1.05 1.07z" fill="#acacac"/><path d="m56.8 40.74h-.84c0-.06 0-.13 0-.19 16.81-1.94 33.5-.99 50.18 2.11-.2.24-.37.15-.52.19-1.31-.07-2.59-.39-3.88-.6-2.98-.48-5.96-.87-8.95-1.26-3.5-.45-7.02-.66-10.54-.96-.8-.2-1.63.05-2.43-.13h-.05s-.05 0-.05 0c-.14-.11-.31-.07-.47-.07-3.77 0-7.54 0-11.31 0-.16 0-.33-.04-.47.07-.79.19-1.61-.06-2.4.14-2.55.24-5.11.36-7.65.69-.21.03-.42.02-.63.03z" fill="#535353"/><path d="m67.48 39.89c.28-.17.59-.14.89-.14h10.48c.3 0 .61-.03.89.14-4.09 0-8.17 0-12.26 0z" fill="#505050"/><path d="m65.08 40.03c.79-.28 1.6-.08 2.4-.14-.79.24-1.6.09-2.4.14z" fill="#505050"/><path d="m79.84 39.89c.81.04 1.63-.15 2.43.13-.81-.04-1.63.08-2.43-.13z" fill="#505050"/><path d="m126.87 10.36c-4.1-1.02-8.2-2.02-12.34-2.87-.63-.02-.55.43-.55.83v21.32c0 .28-.04.57.15.81.29-.3.6-.59.87-.92 1.7-2.1 2.58-4.56 3.06-7.17.16-.86.62-1.37 1.4-1.57 1.69-.42 3.26-.28 4.54 1.08 1.42 1.52 2.34 3.32 3 5.28.07.22.04.51.33.65.01-.11.03-.18.03-.25.01-5.51.02-11.03.05-16.54 0-.42-.16-.57-.54-.66zm-6.45 9.17c-.45.7-1.03.72-1.51.03-.54-.78-.76-1.68-.75-2.6 0-.68.59-1.04 1.14-1.31.52-.26 1.07-.24 1.55.07.35.23.2.69.3 1.03-.1.97-.18 1.94-.72 2.77z"/><path d="m26.61 19.89c-.18-.95-.05-1.92-.09-2.87-.01-.37.23-.43.52-.35.15.04.31.12.43.22 1.21 1.01 1.57 4.19-.3 5.25-.44.15-.39-.18-.41-.43-.03-.61-.1-1.21-.16-1.81z" fill="#030303"/><path d="m26.61 19.89c.35.51.37 1.09.43 1.67.02.2-.09.43.14.57-.44.27-.66.14-.64-.37.02-.62-.07-1.25.07-1.87z" fill="#424242"/><path d="m85.36 16.49c.52-.19.85.11 1.14.47.88 1.08.97 3.09.2 4.25-.28.42-.63.74-1.15.82-.04-.03-.1-.06-.1-.09.16-1.82-.38-3.62-.1-5.44z" fill="#030303"/><path d="m85.36 16.49c.02 1.33-.05 2.66.38 3.95.18.54-.14 1.05-.19 1.58-.29.03-.29-.19-.29-.37-.01-1.64-.02-3.28-.03-4.93 0-.08.08-.16.13-.23z" fill="#535353"/><path d="m38.75 16.35v2.78c-.08-1.2-.31-2.4-.02-3.59 0 .27.01.54.02.81z" fill="#4f4f4f"/><path d="m105.66 17.07c-.76.04-.91-.2-.69-1.15.88-.08 1.09.05 1.1.61 0 .32-.15.46-.41.54z" fill="#c5c5c5"/><path d="m105.66 17.07c.34-.19.31-.56.23-.8-.14-.4-.59-.29-.92-.35.28-.15.57-.19.86-.05.3.14.42.4.4.74-.02.37-.28.44-.57.47z" fill="#535353"/></svg>