<svg viewBox="0 0 76.88 63.73" xmlns="http://www.w3.org/2000/svg"><path d="m76.88 12.39c0-.32-.07-.49-.4-.58-.81-.23-1.6-.49-2.4-.74-2.6-.82-5.2-1.64-7.8-2.45-2.66-.83-5.33-1.66-7.99-2.49-2.87-.9-5.74-1.8-8.62-2.7-3.51-1.1-7.02-2.19-10.53-3.3-.47-.15-.89-.18-1.36-.02-2.6.84-5.2 1.65-7.8 2.47-4.25 1.34-8.5 2.66-12.75 4-5.59 1.76-11.18 3.53-16.78 5.28-.38.1-.45.27-.45.63v36.16 14.67c0 .45.01.45.43.31.7-.24 1.4-.5 2.11-.7 2.87-.81 5.72-1.7 8.57-2.6 2.02-.65 4.05-1.27 6.08-1.89 2.36-.73 4.71-1.45 7.07-2.19 1.75-.55 3.5-1.1 5.25-1.67 2.7-.87 5.46-1.56 8.09-2.64.5-.21 1-.23 1.51-.02.31.13.62.26.93.36 2.34.74 4.68 1.49 7.02 2.22 2.37.74 4.74 1.47 7.1 2.21 2.63.82 5.25 1.65 7.87 2.47 2.17.68 4.33 1.36 6.5 2.03 1.65.51 3.3 1.02 4.96 1.51 1.05.31 2.15.49 3.14.99.15.08.23.05.23-.13 0-.12 0-.25 0-.37 0-8.44 0-16.87 0-25.31 0-5.76 0-11.51 0-17.27 0-2.74 0-5.48 0-8.23zm-74.79 1.61c0-.59 0-.57.58-.74.95-.28 1.88-.59 2.82-.89 1.26-.39 2.52-.78 3.78-1.18 1.46-.46 2.92-.91 4.38-1.37 1.6-.5 3.2-1 4.8-1.5 1.22-.38 2.44-.77 3.67-1.16 1.54-.48 3.08-.96 4.63-1.44 1.78-.56 3.55-1.12 5.33-1.67 1.47-.46 2.94-.91 4.41-1.37.57-.18 1.13-.35 1.69-.53.2-.06.38-.06.58 0 1.25.4 2.49.79 3.74 1.18 1.8.56 3.61 1.11 5.41 1.67 1.75.55 3.5 1.11 5.25 1.66 1.55.49 3.11.96 4.66 1.45 1.47.46 2.94.93 4.41 1.39 2.13.67 4.26 1.33 6.39 2 1.78.56 3.55 1.12 5.33 1.68.01 0 .02 0 .04.01q.84.29.84 1.21v20.56 20.78.41c.01.23-.06.31-.31.24-.73-.23-1.46-.45-2.19-.67-1.59-.49-3.18-.98-4.77-1.48-1.51-.47-3.01-.96-4.51-1.43-1.81-.56-3.63-1.12-5.44-1.68-2.04-.63-4.07-1.28-6.1-1.92-1.84-.57-3.67-1.14-5.51-1.71-1.53-.48-3.06-.96-4.59-1.44-.88-.28-1.77-.55-2.65-.83-.24-.08-.46-.03-.69.04-2.45.76-4.9 1.52-7.34 2.29-2.07.65-4.14 1.31-6.21 1.95-2.35.73-4.71 1.45-7.07 2.18-1.51.47-3.01.96-4.51 1.43-1.46.46-2.92.91-4.38 1.36-1.88.59-3.77 1.17-5.65 1.77-.82.26-.81.28-.81-.57 0-13.89 0-27.79 0-41.68zm72.72 46.7c0 .24-.11.26-.3.2-1.99-.63-3.97-1.25-5.96-1.88-1.46-.46-2.92-.9-4.38-1.36-1.31-.41-2.61-.82-3.92-1.23-1.45-.45-2.9-.9-4.34-1.35-1.92-.6-3.83-1.2-5.75-1.8-2.33-.73-4.66-1.44-6.99-2.17-1.49-.47-2.99-.94-4.48-1.41-.13-.04-.26-.06-.4-.01-2.01.63-4.02 1.27-6.03 1.89-2.04.64-4.07 1.27-6.11 1.9-1.8.56-3.6 1.13-5.4 1.69-2.12.66-4.24 1.32-6.35 1.98-1.82.57-3.65 1.14-5.47 1.71-2.05.64-4.1 1.28-6.15 1.91-.69.21-.69.2-.69-.54 0-.12 0-.25 0-.37 0-.05 0-.1 0-.15 0-.99 0-.98.96-1.28 2.74-.85 5.48-1.72 8.22-2.57 2.09-.65 4.19-1.29 6.29-1.94 1.77-.55 3.52-1.12 5.29-1.67 2.34-.73 4.69-1.45 7.03-2.18 2.11-.66 4.21-1.33 6.31-1.99.58-.18 1.16-.34 1.73-.54.39-.14.76-.1 1.15.02 2.49.79 4.99 1.56 7.48 2.34 2.35.74 4.7 1.49 7.06 2.22 2.08.65 4.17 1.28 6.25 1.94 1.79.56 3.57 1.14 5.36 1.7 2 .63 4 1.24 6 1.86 1.11.34 2.21.7 3.32 1.04.2.06.28.17.28.37v1.67z" fill="#868686"/><g fill="#858585"><path d="m10.03 33.11c.83.87 1.79 1.45 2.88 1.82.59.2 1.2.28 1.82.22.95-.08 1.57-1.02 1.42-2.06-.12-.81-.6-1.39-1.15-1.94-.85-.86-1.8-1.61-2.64-2.48-1.46-1.53-2.35-3.33-2.39-5.46-.04-2.42.72-4.56 2.58-6.18 1.01-.88 2.24-1.33 3.59-1.37 1.61-.05 3.17.21 4.68.76.05.02.09.04.14.06q1.19.52 1.19 1.83v4.56c0 .14.07.34-.08.41-.12.06-.23-.11-.33-.19-.74-.56-1.52-1.04-2.41-1.35-.52-.18-1.05-.21-1.57-.12-.88.14-1.37 1.15-.99 1.98.35.78.98 1.32 1.6 1.87 1.15 1.03 2.33 2.02 3.23 3.29 1.38 1.95 1.8 4.1 1.33 6.43-.4 2.01-1.36 3.69-3.02 4.93-1.6 1.19-3.42 1.6-5.39 1.33-1.56-.22-2.99-.81-4.3-1.67-.14-.09-.25-.19-.25-.37 0-2.04 0-4.07 0-6.11 0-.03.02-.07.06-.16z"/><path d="m36.4 22.89c2.17.07 3.88.63 5.41 1.72.2.14.25.26.12.48-.57.99-1.14 1.99-1.7 2.99-.14.24-.25.27-.49.11-.7-.47-1.45-.85-2.33-.84-.39 0-.76.07-.93.47-.18.41-.05.78.22 1.1.38.46.91.71 1.43.96.74.36 1.5.7 2.18 1.17 1.35.93 2.13 2.2 2.3 3.84.25 2.48-.59 4.45-2.74 5.76-1.57.96-3.3 1.16-5.1.77-1.49-.33-2.82-.95-4-1.92-.29-.24-.41-.42-.18-.82.67-1.12 1.28-2.28 1.9-3.43.09-.17.17-.17.3-.04.58.56 1.26.98 2.01 1.28.35.14.71.22 1.08.25.61.04.94-.21 1.12-.8.14-.47-.05-.87-.51-1.19-.78-.54-1.68-.81-2.52-1.23-1.18-.6-2.16-1.38-2.69-2.63-.49-1.16-.58-2.38-.31-3.59.46-2.07 1.79-3.38 3.76-4.07.62-.22 1.28-.37 1.67-.32z"/><path d="m50.32 35.06v5.48c0 .35-.1.47-.46.47-1.64-.02-3.29 0-4.93 0-.5 0-.52-.02-.52-.52 0-3.61 0-7.21 0-10.82q0-.55-.56-.55c-.27 0-.54-.01-.81 0-.31.02-.41-.11-.41-.41 0-1.05 0-2.1 0-3.15 0-.52 0-1.04 0-1.56 0-.27.08-.38.36-.37.33.02.67-.01 1 0 .33.02.43-.11.42-.43-.01-1.43 0-2.87 0-4.3 0-.53 0-.54.54-.54 1.63 0 3.26.01 4.89 0 .38 0 .48.12.48.49-.02 1.44 0 2.89-.01 4.33 0 .33.09.47.44.45.34-.03.69 0 1.04 0 .21 0 .32.07.32.3v4.89c0 .24-.12.3-.32.29-.35 0-.69.01-1.04 0-.32-.02-.43.1-.43.43.01 1.84 0 3.68 0 5.52z"/></g><path d="m29.66 32.32v8.18c0 .49 0 .5-.49.5-1.59 0-3.19 0-4.78 0-.36 0-.47-.12-.47-.47 0-5.48 0-10.96 0-16.44 0-.36.11-.47.47-.46 1.6.02 3.21.02 4.81 0 .36 0 .46.11.46.47-.01 2.74 0 5.48 0 8.22z" fill="#868686"/><path d="m30.26 18.7c0 1.73-1.11 3.38-2.7 3.76-1.15.28-2.15-.03-2.99-.83-1.79-1.69-1.61-4.65.36-6.1 1.47-1.08 3.61-.65 4.65.92.47.7.66 1.48.68 2.25z" fill="#858585"/><path d="m62.86 21.97c-.09.24-.11.51-.25.73-.05.08-.06.2-.19.2-.15 0-.16-.13-.2-.23-.13-.33-.26-.65-.47-.97v.94c0 .09.02.22-.11.24-.13.01-.16-.1-.16-.2 0-.47 0-.94 0-1.41 0-.1.03-.2.16-.21s.21.05.26.17c.12.31.25.62.37.93.04.1.05.22.2.3.12-.3.23-.59.34-.88.13-.06.18 0 .15.12-.02.09-.05.18-.09.27z" fill="#8e8e8e"/><path d="m62.86 21.97c-.03-.13.1-.28-.07-.39.09-.2.09-.55.38-.5.31.05.17.38.18.59.02.33 0 .66 0 .99 0 .09 0 .22-.14.22s-.13-.12-.14-.22c0-.32 0-.63 0-1.03-.1.16-.16.24-.22.33z" fill="#959595"/><path d="m63.87 22.63c.1 0 .15.04.15.13 0 .08-.04.14-.12.14-.09 0-.14-.04-.14-.13s.04-.13.11-.14z" fill="#909090"/><path d="m66.64 24.06c0-.33-.1-.42-.43-.42-1.51.01-3.01.02-4.52 0-.37 0-.47.13-.45.48.02.53 0 1.05 0 1.58-.04 0-.07.01-.11.02-.07-.12-.14-.23-.21-.35-.38-.65-.81-1.27-1.45-1.71-1.41-.98-3.65-.91-5.01.88-.94 1.24-1.43 2.67-1.76 4.16-.48 2.17-.5 4.36-.22 6.55.21 1.61.56 3.18 1.45 4.58.88 1.39 2.39 2.06 3.98 1.68 1.17-.28 2.01-1.05 2.75-1.96.16-.2.26-.47.56-.67 0 .61.01 1.15 0 1.68 0 .33.12.46.46.45 1.51-.01 3.01-.01 4.52 0 .33 0 .42-.12.42-.43 0-5.51 0-11.02 0-16.53zm-5.68 9.51c-.08.74-.26 1.46-.7 2.08-.47.67-.99.61-1.37-.13-.45-.89-.59-1.85-.57-2.83 0-.05 0-.1 0-.15-.01-1.01.09-2 .52-2.92.16-.34.33-.73.75-.73.45 0 .66.39.84.75.61 1.25.67 2.59.53 3.94z" fill="#858585"/><path d="m64.43 22.56c0 .12-.05.32.15.32.17 0 .12-.18.13-.3 0-.02 0-.05 0-.07 0-.23.03-.41.33-.41s.51.05.55.4c.02.15-.03.41.18.37.23-.04.07-.29.08-.44 0-.07-.02-.15-.06-.21-.1-.16-.06-.27.03-.43.18-.31 0-.65-.37-.72-.88-.17-1.03-.05-1.03.83v.07.59zm.76-1.27c.14.02.41-.03.4.31 0 .34-.29.27-.5.29-.22.01-.39-.02-.39-.31 0-.3.2-.3.48-.28z" fill="#8d8d8d"/><path d="m66.36 22.9c.09 0 .12-.06.12-.15-.01-.07-.06-.12-.14-.11-.09 0-.12.06-.12.15s.06.13.14.12z" fill="#919191"/></svg>