<svg viewBox="0 0 135.81 48.81" xmlns="http://www.w3.org/2000/svg"><g fill="#919191"><path d="m30.65 0h24.89c.69 0 .68 0 .68.71 0 1.16 0 2.32.02 3.48 0 .35-.11.42-.44.42-3.42-.01-6.84.05-10.25-.03-2.11-.06-3.66.77-4.89 2.42-1.13 1.52-2.04 3.18-3 4.81-2.29 3.85-4.56 7.72-6.83 11.57-1.1 1.86-2.2 3.72-3.3 5.58-.78 1.33-1.55 1.36-2.34.04-2.03-3.45-3.99-6.94-5.9-10.46-.53-.98-1.13-1.9-1.88-2.74-1.23-1.39-2.8-1.87-4.57-1.88-3.97-.02-7.95 0-11.92 0-.1 0-.19 0-.29 0-.63 0-.64 0-.64-.63 0-2.46 0-4.93 0-7.39.02-3.13 2.79-5.9 5.91-5.9z"/><path d="m0 30.72c0-4.08 0-8.17 0-12.25 0-.66 0-.66.66-.66h5.58c.43 0 .85.07 1.27.16.63.14 1.12.48 1.51 1.01 1.6 2.18 2.94 4.53 4.32 6.85 1.62 2.73 3.21 5.48 4.8 8.24 2.74 4.75 5.46 9.5 8.19 14.26.23.41.19.48-.35.48-3.31 0-6.61 0-9.92 0-3.27 0-6.55.02-9.82 0-2.38-.02-4.21-1.07-5.46-3.1-.53-.89-.78-1.86-.78-2.88 0-4.04 0-8.07 0-12.11z"/><path d="m56.2 33.55c0 3.16.04 6.32-.01 9.48-.04 2.52-1.75 5.49-5.35 5.71-.46.03-.92.06-1.38.06-5.24 0-10.49 0-15.73 0-.1 0-.19 0-.29 0-.58 0-.61-.06-.33-.56 1.06-1.88 2.14-3.76 3.2-5.63 3.05-5.37 6.1-10.75 9.16-16.12.57-1 1.23-1.93 2.22-2.58.56-.37 1.18-.55 1.84-.55 2.07-.01 4.13 0 6.2-.01.41 0 .5.15.49.53-.01 3.23 0 6.45 0 9.68 0 0 0 0-.01 0z"/><path d="m72.84 35.21c0-2.43 0-4.86 0-7.29 0-.73-.13-.86-.87-.86-1.06 0-2.13 0-3.19 0-.65 0-.75-.11-.76-.75 0-.83 0-1.65 0-2.48 0-.58.07-.65.67-.65h3.34c.68 0 .81-.14.81-.81 0-1.32 0-2.64 0-3.96 0-.54.2-.77.73-.77h5.39c.51 0 .67.18.68.75v3.91c0 .77.1.87.88.87h5.48c.65 0 .71.06.71.7v2.43c0 .63-.11.74-.76.74-1.84 0-3.69 0-5.53 0-.67 0-.77.1-.77.78 0 4.56-.01 9.12 0 13.68 0 1.85.8 2.86 2.91 3.56 1.25.42 2.53.37 3.82.17.7-.11.78-.03.77.67 0 .52 0 1.05-.01 1.57 0 .4-.2.65-.62.72-2.59.45-5.19.76-7.82.32-1.53-.26-2.93-.88-4.12-1.88-1.3-1.09-1.7-2.62-1.73-4.24-.05-2.4-.01-4.8-.01-7.2 0 0-.01 0-.02 0z"/><path d="m88.88 36.09c0-3.96 0-7.91 0-11.87 0-.77.08-.84.85-.85 4.05 0 8.1-.01 12.16 0 1.03 0 2.06.15 3.05.5 2.3.81 3.71 2.9 3.62 5.32-.03.92 0 1.84 0 2.76 0 .65-.17.82-.82.83-1.54 0-3.08 0-4.62 0-.59 0-.66-.08-.68-.66-.03-.94.04-1.87-.08-2.81-.15-1.13-.6-2.07-1.71-2.5-1.28-.49-2.54-.5-3.71.38-1.06.79-1.45 1.86-1.45 3.15.02 5.82 0 11.63 0 17.45v.48c-.01.34-.17.54-.53.53-1.81 0-3.62 0-5.43 0-.43 0-.63-.25-.63-.67 0-.7 0-1.4 0-2.1 0-3.32 0-6.64 0-9.96z"/><path d="m65.7 36.09v11.73c0 .86-.12.98-1 .99-1.57 0-3.15 0-4.72 0-.82 0-.95-.13-.95-.93 0-7.83 0-15.67 0-23.5 0-.91.1-1.01 1.01-1.01h4.91c.61 0 .77.17.77.76v11.97s-.01 0-.02 0z"/><path d="m135.81 31.13c0-1.7-.6-3.13-1.77-4.33-1.41-1.44-3.16-2.27-5.09-2.74-3.4-.82-6.83-.88-10.27-.37-1.93.29-3.79.83-5.44 1.93-1.91 1.28-3.03 2.98-2.93 5.37.06 1.49.01 2.99.01 4.48 0 1.62.01 3.24 0 4.86-.02 1.57.44 2.97 1.37 4.23 1.37 1.85 3.23 2.97 5.44 3.54 2.58.67 5.2.81 7.85.59 1.97-.16 3.91-.51 5.73-1.31 3.35-1.47 5.14-3.96 5.11-7.68-.03-2.86-.02-5.72 0-8.58zm-10.07 13.73c-2.27.66-4.51.78-6.54-.65-1.35-.95-2.15-2.29-2.15-3.99-.01-2.78.04-5.56-.02-8.34-.05-2.25 1.34-3.82 3.25-4.48 2.05-.71 4.09-.67 6.07.27 1.72.82 2.77 2.06 2.69 4.09-.06 1.44-.01 2.89-.01 4.34 0 1.38-.06 2.77.01 4.15.13 2.31-1.63 4.13-3.3 4.61z"/></g></svg>