<?xml version="1.0" encoding="UTF-8"?>
<svg id="Capa_2" data-name="Capa 2" xmlns="http://www.w3.org/2000/svg" viewBox="0 0 987.54 946.55">
  <defs>
    <style>
      .cls-1 {
        stroke-dasharray: 0 0 11.92 11.92;
      }

      .cls-1, .cls-2, .cls-3, .cls-4, .cls-5, .cls-6 {
        fill: none;
        stroke: #b2b2b2;
        stroke-miterlimit: 10;
        stroke-width: .5px;
      }

      .cls-2 {
        stroke-dasharray: 0 0 12.04 12.04;
      }

      .cls-4 {
        stroke-dasharray: 0 0 12.18 12.18;
      }

      .cls-5 {
        stroke-dasharray: 0 0 12.14 12.14;
      }

      .cls-7 {
        fill: #fff;
        stroke-width: 0px;
      }

      .cls-6 {
        stroke-dasharray: 0 0 11.92 11.92;
      }
    </style>
  </defs>
  <g id="_-" data-name="-">
    <g>
      <g>
        <line class="cls-3" x1="92.22" y1="301.87" x2="98.22" y2="301.87"/>
        <line class="cls-4" x1="110.4" y1="301.87" x2="883.79" y2="301.87"/>
        <line class="cls-3" x1="889.88" y1="301.87" x2="895.88" y2="301.87"/>
      </g>
      <g>
        <line class="cls-3" x1=".6" y1="326.02" x2="6.6" y2="326.02"/>
        <line class="cls-5" x1="18.74" y1="326.02" x2="959.3" y2="326.02"/>
        <line class="cls-3" x1="965.37" y1="326.02" x2="971.37" y2="326.02"/>
      </g>
      <g>
        <line class="cls-3" x1="904.15" y1="931.14" x2="901.12" y2="925.96"/>
        <line class="cls-5" x1="895" y1="915.48" x2="420.4" y2="103.44"/>
        <line class="cls-3" x1="417.34" y1="98.21" x2="414.31" y2="93.03"/>
      </g>
      <g>
        <line class="cls-3" x1="910.88" y1="799.99" x2="907.86" y2="794.81"/>
        <line class="cls-6" x1="901.84" y1="784.52" x2="471.83" y2="48.77"/>
        <line class="cls-3" x1="468.83" y1="43.63" x2="465.8" y2="38.44"/>
      </g>
      <g>
        <line class="cls-3" x1="44.21" y1="946.42" x2="47.25" y2="941.25"/>
        <line class="cls-1" x1="53.28" y1="930.96" x2="593.18" y2="10.44"/>
        <line class="cls-3" x1="596.2" y1="5.3" x2="599.23" y2=".13"/>
      </g>
      <g>
        <line class="cls-3" x1="156.25" y1="907.64" x2="159.29" y2="902.47"/>
        <line class="cls-2" x1="165.38" y1="892.08" x2="625.26" y2="107.98"/>
        <line class="cls-3" x1="628.31" y1="102.79" x2="631.35" y2="97.61"/>
      </g>
      <g>
        <line class="cls-3" y1="816.82" x2="6" y2="816.82"/>
        <line class="cls-5" x1="18.14" y1="816.82" x2="958.69" y2="816.82"/>
        <line class="cls-3" x1="964.76" y1="816.82" x2="970.76" y2="816.82"/>
      </g>
      <g>
        <line class="cls-3" x1="16.78" y1="712.19" x2="22.78" y2="712.19"/>
        <line class="cls-5" x1="34.91" y1="712.19" x2="975.47" y2="712.19"/>
        <line class="cls-3" x1="981.54" y1="712.19" x2="987.54" y2="712.19"/>
      </g>
      <path class="cls-7" d="M677.56,766.67c.44-13.04,4.2-24.18,14.6-31.88,12.51-9.26,34.92-9.76,45.79,6.33.41.61.93,1.15,1.38,1.74.26.33.71.7.7,1.04-.13,3.66-3.59,4.44-5.71,6.33-1.76,1.56-2.51-.23-3.25-1.53-4.03-7.18-9.6-11.89-18.38-10.87-4.99.58-9.21,3.02-11.35,7.62-3.92,8.41-5.32,17.29-3.6,26.56,1.06,5.72,2.18,11.26,5.97,16.11,7.07,9.05,19.25,9.51,26.34.55,1.62-2.05,3.01-4.32,4.2-6.65.78-1.53,1.53-1.87,2.92-.98.18.11.36.23.54.33,5.97,3.36,6.25,4.86,2.19,10.41-8.05,11.01-18.93,14.19-32.08,12.33-19.73-2.8-30.28-21.45-30.27-37.42Z"/>
      <path class="cls-7" d="M623.52,732.52c-.07-2.97,1.03-3.87,3.77-3.84,11.81.14,23.62.24,35.43.22,2.72,0,3.68,1.03,3.73,3.66.13,6.66.2,6.71-6.51,6.74-4.7.02-9.4-.05-14.1-.24-2.12-.09-3.05.65-3.01,2.78.1,5.47.22,10.94.2,16.4-.01,2.47,1.38,2.9,3.37,2.89,5.03-.03,10.07.12,15.09-.08,3.03-.12,4.28.98,3.98,3.97-.09.87-.1,1.76.03,2.62.38,2.64-.8,3.46-3.33,3.38-5.25-.15-10.5-.04-15.75-.15-2.38-.05-3.33.83-3.25,3.28.19,5.35.27,10.72.18,16.07-.05,3.14,1.39,4.38,4.34,4.36,5.58-.04,11.15-.09,16.73-.07,3.72,0,4.18.93,4.27,6.71.05,3.14-1.69,3.52-4.21,3.49-11.92-.13-23.84-.24-35.75-.19-3.05.01-4.17-.79-4.12-4.12.14-11.26-.81-56.53-1.08-67.9Z"/>
      <path class="cls-7" d="M598.01,801.24c.05,2.64-.73,3.42-3.41,3.19-3.9-.34-7.85-.34-11.77-.18-2.82.11-3.83-.79-3.85-3.7-.15-19.32-.52-38.63-.67-57.95-.02-2.61-.87-3.53-3.39-3.44-3.71.13-7.42,0-11.13.14-2.69.1-3.66-1.13-3.78-3.7-.31-6.58-.37-6.65,6.18-6.68,15.17-.08,30.34-.08,45.51-.16,2.56-.01,3.65,1.05,3.26,3.6-.05.32-.07.65-.07.98q.07,5.78-5.68,5.75c-2.73-.02-5.47.07-8.18-.12-2.79-.2-3.85.68-3.77,3.67.26,9.71.54,48.78.74,58.6Z"/>
      <path class="cls-7" d="M551.68,766.51c.1,11.35.15,22.7.34,34.05.04,2.63-.82,3.75-3.53,3.65-3.99-.15-8-.11-12-.06-2.46.03-3.42-1.04-3.45-3.53-.25-22.16-.55-44.32-.89-66.48-.06-4.28.5-4.9,4.79-4.81,3.46.08,6.92.16,10.38.02,2.77-.11,3.78.85,3.76,3.74-.06,11.14.48,33.41.6,33.41Z"/>
      <path class="cls-7" d="M503.95,768.03c.57-1.34,1.23-2.66,1.69-4.03,3.49-10.35,6.93-20.71,10.42-31.07,1.06-3.15,5.25-4.96,8.03-3.34.57.34.96,1.9.7,2.63-4.99,14.15-25.31,70.09-26.08,71.95-.89-1.38-1.5-2.04-1.79-2.82-8.35-22.26-16.66-44.53-25.01-66.79-1.68-4.48-1.51-4.81,3.11-4.85,3.79-.03,7.57-.11,11.36-.2,2.27-.05,3.54.99,4.27,3.16,3.65,10.96,7.39,21.89,11.13,32.82.3.87.82,1.67,1.23,2.5.32.01.64.02.96.03Z"/>
      <path class="cls-7" d="M463.72,783.28c-1.28,16.56-11.62,22.63-26.61,21.93-6.6-.31-12.66-2.42-17.65-7.14-5.5-5.2-6.82-11.99-7.03-18.96-.45-15.36-.45-30.73-.67-46.09-.03-2.33.93-3.37,3.28-3.32,3.89.07,7.8.2,11.68-.03,3.16-.19,3.82,1.2,3.8,4.03-.06,12.12-.05,24.24.15,36.35.08,4.52.37,9.1,1.25,13.51,1.53,7.76,7.26,11.22,14.92,9.56,3.8-.83,6.86-4.25,7.4-8.91.51-4.39.82-8.84.79-13.26-.09-12.66-.37-25.32-.67-37.97-.05-2.25.82-3.21,3-3.17.86.01,1.74.04,2.59-.1,2.89-.46,3.93.91,3.94,3.63.02,7.9.49,41.26-.18,49.95Z"/>
      <path class="cls-7" d="M361.05,733.73c-.05-2.85,1-3.87,3.81-3.8,3.56.1,7.13-.03,10.69-.25,2.9-.18,3.98.79,4.01,3.87.13,18.83.51,37.65.68,56.48.03,3.07,1.06,4.26,4.21,4.12,5.51-.24,11.03-.04,16.55-.23,2.17-.08,3.04.84,3.05,2.78.06,7.52,1.18,7.23-6.62,7.19-10.39-.06-20.77,0-31.16.04-4.27.01-4.48-.2-4.51-4.62-.08-10.82-.18-21.64-.28-32.46-.03,0-.22-22.08-.42-33.11Z"/>
      <path class="cls-7" d="M344.71,803.84c-12.12-.25-9.37,2.01-13.2-9.24-1.12-3.28-2.18-6.58-3.11-9.91-.6-2.15-1.93-2.97-4.03-2.96-5.41.02-10.82.07-16.23,0-2.2-.03-3.37.91-3.96,2.99-1.53,5.52-3.15,11.02-4.77,16.51-.73,2.47-7.33,4.15-9,2.2-.47-.55-.4-1.86-.15-2.69,6.51-21.87,13.08-43.73,19.63-65.58,1.43-4.77,1.71-4.98,6.79-5.02,3.25-.03,6.51-.27,9.73,0,1.2.1,2.97,1.16,3.34,2.19,3.25,9.04,22.17,66.04,22.43,66.64,2.02,4.6,1.77,4.99-3.13,4.85-1.62-.05-3.25.02-4.34.03ZM315.41,747.64c-.34.08-.69.16-1.03.25-.4,1.83-.69,3.69-1.21,5.49-1.53,5.29-3.14,10.57-4.75,15.84-.72,2.35-.04,3.5,2.55,3.44,3.46-.08,6.92,0,10.38-.06,2.09-.04,2.85-.88,2.05-3.12-2.1-5.91-3.95-11.9-5.99-17.83-.48-1.4-1.32-2.67-2-4Z"/>
      <path class="cls-7" d="M496.3,488.82c-.27-16.62-.5-33.24-.82-49.86-.14-6.98-6.21-14.04-12.78-15.57-13.12-3.07-23.3,1.23-32.03,11.22-10.48,11.99-84.71,92-84.95,92.57.65.27,20.3.56,20.36.56.05,0,.09,0,.14,0,10.79-.12,10.72-.28,17.63-8.52,9.07-10.82,18.35-21.48,27.61-32.14.63-.72,1.87-1.27,2.84-1.29,11.61-.27,23.23-.38,34.84-.64,2.04-.05,2.43.89,2.45,2.59.1,8.42.3,16.83.35,25.25.02,3.88.27,4.06,4.01,4.02,6.02-.06,12.05.09,18.07.26,2.7.07,2.71-1.69,2.68-3.53-.12-8.31-.26-16.62-.39-24.93ZM472.09,459.09l-11.32.19s-.64-2,3.2-5.69c3.84-3.69,8.22-2.69,8.24-1.26.02,1.43-.12,6.76-.12,6.76Z"/>
      <path class="cls-7" d="M639.56,540.43c-.03-3.93-.51-4.45-4.34-4.4-14.62.19-29.24.41-43.86.55-.99,0-2.67.17-2.98-.88s.69-1.78,1.29-2.44c.46-.5-41.23,43.71-29.58,31.36,1.8-1.91,3.97-4.47,6.22-4.78,5.55-.74,11.25-.33,16.9-.42,4.47-.07,4.67.13,4.77,4.56.38,18.16.81,36.33,1.12,54.49.04,2.27.74,3.2,3.06,3.16,5.2-.1,10.41-.09,15.62-.03,1.96.02,2.82-.67,2.75-2.72-.18-5.31-.66-42.99-.87-56.5-.03-2.28.53-3.5,3.19-3.36,3.75.2,21.61-.15,26.93-.22-.08-6.44-.17-12.41-.22-18.37Z"/>
      <path class="cls-7" d="M609.46,512.08c-3.03.04-23.03-.06-30.87.14-1.71.04-3.79.87-5.01,2.06-4.29,4.15-73.98,78.37-74.81,77.73s-.81-2.23-.83-3.36c-.36-19.72-.68-39.44-.94-59.16-.03-2.23-.6-3.81-3.03-3.79-6.3.04-12.6.17-18.9.36-1.92.06-2.89,1.03-2.84,3.22.51,21.6,1.06,43.2,1.29,64.81.08,7.12,2.28,13.16,6.52,18.73,7.25,9.53,21.62,11.33,30.63,3.47.25-.22.6-.55,1.03-.96l79.43-83.58c5.83-6.3,11.74-12.62,18.32-19.67ZM566.4,557.16c-1.01,1.01-2.57,1.69-4,2.01-3.01.67-4.09-.26-4.16-3.35-.13-5.31-.3-10.62-.15-15.92.03-.98,1.43-2.72,2.24-2.75,7.83-.25,15.68-.21,23.52-.24.18,0,.35.24,1.12.79-1.28,1.41-2.42,2.7-3.6,3.94-4.96,5.2-9.89,10.44-14.97,15.52Z"/>
      <path class="cls-7" d="M499.31,315.1l-217.36,375.81h486.18s-215.21-375.81-215.21-375.81h-53.61ZM288.62,687.2l211.91-361.17h51.87l210.99,361.17h-474.77Z"/>
      <path class="cls-7" d="M627.1,301.87h-204.83l-196.72,335.84,41,74.27,511.51.21,43.89-79.14-194.85-331.18ZM771.62,707.4h-501.05l-37.48-69.86,191.91-328.87h200.04l189.92,324.5-43.34,74.24Z"/>
      <polygon class="cls-7" points="763.39 687.2 645.65 687.26 645.64 712.19 778.02 712.19 763.39 687.19 763.39 687.2"/>
      <polygon class="cls-7" points="821.96 633.05 627.1 301.87 537.84 301.87 551.08 324.48 552.62 324.48 763.39 687.19 778.02 712.19 778.07 712.19 821.96 633.05"/>
      <polygon class="cls-7" points="494.05 301.87 494.05 324.48 551.08 324.48 537.84 301.87 494.05 301.87"/>
    </g>
  </g>
</svg>