<svg viewBox="0 0 1080 1080" xmlns="http://www.w3.org/2000/svg"><g fill="#fff"><path d="m444.25 947.34c-2.18 28.23-19.8 38.57-45.36 37.38-11.25-.52-21.59-4.12-30.09-12.17-9.38-8.87-11.63-20.44-11.98-32.32-.76-26.18-.76-52.39-1.15-78.58-.06-3.97 1.59-5.74 5.59-5.67 6.64.12 13.3.35 19.91-.06 5.4-.33 6.51 2.04 6.48 6.86-.11 20.66-.09 41.32.26 61.98.13 7.7.64 15.51 2.12 23.04 2.61 13.24 12.38 19.13 25.43 16.29 6.47-1.41 11.7-7.24 12.62-15.19.87-7.49 1.4-15.07 1.35-22.6-.16-21.58-.63-43.16-1.13-64.74-.09-3.84 1.4-5.48 5.12-5.41 1.47.03 2.97.06 4.42-.17 4.93-.79 6.7 1.55 6.72 6.2.04 13.47.83 70.34-.31 85.16z"/><path d="m241.37 982.4c-20.66-.42-15.97 3.42-22.5-15.75-1.91-5.59-3.72-11.21-5.31-16.89-1.02-3.66-3.3-5.06-6.87-5.05-9.23.04-18.45.12-27.68 0-3.76-.05-5.75 1.54-6.74 5.1-2.62 9.41-5.36 18.78-8.14 28.14-1.25 4.22-12.5 7.07-15.34 3.75-.8-.94-.67-3.17-.25-4.59 11.1-37.29 22.29-74.55 33.47-111.81 2.44-8.14 2.92-8.49 11.58-8.57 5.54-.05 11.1-.46 16.59.01 2.04.17 5.06 1.97 5.69 3.73 5.55 15.41 37.8 112.59 38.25 113.6 3.45 7.84 3.01 8.5-5.34 8.27-2.76-.08-5.53.03-7.4.05zm-49.97-95.82c-.59.14-1.18.28-1.76.42-.68 3.12-1.17 6.3-2.06 9.36-2.61 9.02-5.35 18.01-8.09 27-1.22 4-.07 5.97 4.34 5.86 5.9-.14 11.8.01 17.7-.1 3.57-.07 4.85-1.49 3.49-5.33-3.58-10.07-6.73-20.29-10.2-30.39-.82-2.38-2.26-4.55-3.41-6.82z"/><path d="m808.82 919.02c.74-22.24 7.16-41.22 24.9-54.35 21.33-15.78 59.53-16.64 78.06 10.78.7 1.04 1.58 1.97 2.35 2.96.44.57 1.21 1.19 1.19 1.76-.22 6.24-6.13 7.57-9.74 10.79-2.99 2.67-4.29-.39-5.53-2.61-6.87-12.23-16.36-20.27-31.34-18.52-8.5.99-15.7 5.16-19.36 12.98-6.69 14.34-9.06 29.49-6.14 45.27 1.81 9.76 3.72 19.2 10.18 27.46 12.06 15.43 32.82 16.22 44.91.94 2.76-3.49 5.14-7.37 7.17-11.34 1.33-2.6 2.61-3.19 4.97-1.68.3.19.61.39.92.57 10.17 5.73 10.66 8.28 3.74 17.74-13.73 18.78-32.27 24.2-54.68 21.02-33.64-4.77-51.63-36.57-51.6-63.8z"/><path d="m716.7 860.8c-.12-5.07 1.75-6.6 6.43-6.55 20.13.23 40.26.42 60.4.38 4.63 0 6.27 1.76 6.35 6.25.22 11.36.34 11.44-11.09 11.49-8.01.04-16.03-.08-24.04-.41-3.62-.15-5.2 1.12-5.13 4.74.18 9.32.37 18.64.34 27.96-.02 4.2 2.35 4.94 5.74 4.92 8.58-.05 17.16.21 25.72-.13 5.17-.21 7.3 1.68 6.78 6.77-.15 1.48-.17 3 .04 4.47.65 4.5-1.37 5.9-5.68 5.77-8.94-.26-17.9-.06-26.84-.26-4.06-.09-5.68 1.41-5.53 5.59.32 9.13.46 18.27.31 27.4-.09 5.36 2.38 7.47 7.39 7.43 9.51-.06 19.02-.15 28.53-.13 6.34.01 7.12 1.58 7.28 11.44.09 5.36-2.88 6-7.17 5.95-20.32-.22-40.64-.41-60.96-.32-5.21.02-7.1-1.34-7.03-7.02.24-19.2-1.39-96.37-1.83-115.76z"/><path d="m673.2 977.96c.09 4.5-1.24 5.84-5.82 5.44-6.65-.58-13.39-.58-20.07-.3-4.81.2-6.52-1.34-6.56-6.31-.26-32.93-.88-65.87-1.14-98.8-.04-4.45-1.48-6.01-5.77-5.86-6.32.23-12.66 0-18.98.23-4.58.17-6.23-1.92-6.44-6.3-.52-11.23-.64-11.33 10.54-11.39 25.86-.14 51.73-.13 77.59-.27 4.37-.02 6.22 1.8 5.56 6.13-.08.55-.12 1.11-.11 1.67q.12 9.85-9.68 9.79c-4.65-.03-9.32.13-13.95-.2-4.76-.34-6.56 1.16-6.42 6.26.45 16.55.91 83.17 1.26 99.9z"/><path d="m269.21 862.86c-.09-4.86 1.71-6.6 6.49-6.47 6.07.16 12.16-.05 18.22-.43 4.94-.31 6.79 1.35 6.83 6.6.23 32.1.86 64.2 1.16 96.29.05 5.23 1.81 7.26 7.18 7.03 9.39-.4 18.81-.07 28.21-.4 3.7-.13 5.18 1.43 5.21 4.73.1 12.83 2.02 12.33-11.29 12.25-17.71-.11-35.41 0-53.12.06-7.28.02-7.63-.34-7.69-7.87-.14-18.45-.31-36.9-.48-55.35-.05 0-.38-37.64-.72-56.45z"/><path d="m512.84 921.34c.97-2.29 2.09-4.53 2.89-6.88 5.95-17.64 11.82-35.32 17.76-52.96 1.81-5.37 8.95-8.46 13.69-5.69.98.57 1.63 3.23 1.19 4.49-8.51 24.13-43.16 119.49-44.46 122.66-1.51-2.35-2.55-3.47-3.05-4.81-14.24-37.95-28.4-75.92-42.64-113.87-2.87-7.64-2.57-8.21 5.29-8.26 6.45-.05 12.91-.19 19.36-.34 3.86-.09 6.04 1.69 7.28 5.39 6.23 18.68 12.6 37.31 18.97 55.95.51 1.49 1.39 2.85 2.1 4.27.54.02 1.09.04 1.63.05z"/><path d="m594.21 918.74c.17 19.35.25 38.71.57 58.05.08 4.49-1.4 6.4-6.02 6.23-6.81-.25-13.64-.18-20.45-.11-4.19.05-5.84-1.78-5.88-6.02-.42-37.78-.94-75.56-1.51-113.34-.11-7.3.86-8.36 8.17-8.19 5.9.13 11.8.27 17.69.04 4.72-.19 6.44 1.44 6.41 6.38-.1 18.99.82 56.96 1.03 56.96z"/><path d="m499.8 445.32c-.46-28.33-.85-56.67-1.41-85-.23-11.9-10.59-23.93-21.79-26.55-22.36-5.23-39.73 2.1-54.61 19.13-17.87 20.43-144.41 156.85-144.82 157.82 1.1.45 34.61.95 34.7.95h.24c18.4-.2 18.27-.47 30.06-14.53 15.46-18.45 31.28-36.61 47.07-54.79 1.07-1.23 3.18-2.17 4.84-2.21 19.8-.46 39.6-.65 59.39-1.09 3.48-.08 4.15 1.52 4.18 4.42.17 14.35.51 28.7.6 43.05.04 6.62.46 6.93 6.83 6.86 10.27-.11 20.54.16 30.81.44 4.6.13 4.62-2.88 4.57-6.01-.2-14.17-.44-28.33-.67-42.49zm-41.27-50.68-19.29.32s-1.08-3.41 5.46-9.7 14.01-4.59 14.04-2.15-.21 11.53-.21 11.53z"/><path d="m692.72 484.98c-12.11 12.98-22.9 24.5-33.6 36.1-1.03 1.11-2.74 2.37-2.21 4.15s3.39 1.51 5.08 1.5c24.93-.23 49.85-.61 74.78-.93 6.54-.09 7.35.8 7.4 7.51.09 10.17.24 20.33.37 31.32-9.07.11-39.51.7-45.91.37-4.54-.24-5.5 1.84-5.44 5.72.35 23.05 1.17 87.27 1.48 96.33.12 3.49-1.34 4.68-4.68 4.64-8.88-.1-17.76-.12-26.63.05-3.95.07-5.14-1.51-5.21-5.39-.53-30.97-1.26-61.93-1.91-92.9-.16-7.54-.51-7.89-8.13-7.77-9.62.15-19.34-.56-28.8.71-3.85.52-7.54 4.88-10.61 8.14-21.06 22.35-76.88 81.56-84.38 88.1-15.36 13.4-39.87 10.34-52.22-5.91-7.22-9.5-10.99-19.8-11.12-31.94-.4-36.83-1.34-73.66-2.21-110.49-.09-3.74 1.56-5.39 4.83-5.49 10.74-.33 21.48-.55 32.23-.62 4.15-.03 5.12 2.66 5.17 6.47.43 33.62.98 67.24 1.6 100.86.03 1.91 0 4.62 1.41 5.72 1.42 1.1 120.23-125.44 127.55-132.51 2.08-2.01 5.63-3.43 8.55-3.51 13.37-.34 47.46-.18 52.63-.24zm-41.75 43.69c-1.32-.95-1.62-1.35-1.91-1.35-13.37.04-26.74-.02-40.1.41-1.38.04-3.77 3.02-3.81 4.68-.25 9.04.03 18.1.26 27.14.13 5.26 1.96 6.86 7.1 5.71 2.43-.54 5.1-1.71 6.82-3.43 8.66-8.66 17.05-17.6 25.51-26.45 2.02-2.11 3.95-4.31 6.14-6.71z"/><path d="m722.8 126.6h-349.2l-335.39 572.56 69.9 126.62 872.06.36 74.83-134.92zm246.38 691.36h-854.22l-63.91-119.11 327.19-560.68h341.04l323.78 553.23-73.88 126.57z"/><path d="m504.93 149.15-370.56 640.71h828.87s-366.9-640.71-366.9-640.71zm-359.2 634.38 361.27-615.75h88.43l354.87 615.75z"/><path d="m495.96 165.15h99.86l354.49 618.38-195.9.1-.01 42.51h225.77l74.83-134.92-332.2-564.62h-226.84"/></g></svg>